<?xml version="1.0" encoding="UTF-8" standalone="no"?>
<svg
   xmlns:dc="http://purl.org/dc/elements/1.1/"
   xmlns:cc="http://creativecommons.org/ns#"
   xmlns:rdf="http://www.w3.org/1999/02/22-rdf-syntax-ns#"
   xmlns:svg="http://www.w3.org/2000/svg"
   xmlns="http://www.w3.org/2000/svg"
   xmlns:sodipodi="http://sodipodi.sourceforge.net/DTD/sodipodi-0.dtd"
   xmlns:inkscape="http://www.inkscape.org/namespaces/inkscape"
   sodipodi:docname="BeakerwithliqSpill.svg"
   inkscape:version="1.0 (4035a4fb49, 2020-05-01)"
   id="svg8"
   version="1.1"
   viewBox="0 0 210 297"
   height="297mm"
   width="210mm">
  <defs
     id="defs2">
    <inkscape:perspective
       id="perspective2392"
       inkscape:persp3d-origin="245.6706 : 99.980842 : 1"
       inkscape:vp_z="-444.9433 : 100.07034 : 1"
       inkscape:vp_y="-9.4054931 : -2.1093553 : 0"
       inkscape:vp_x="935.35331 : 99.682512 : 1"
       sodipodi:type="inkscape:persp3d" />
  </defs>
  <sodipodi:namedview
     inkscape:window-maximized="1"
     inkscape:window-y="-11"
     inkscape:window-x="-11"
     inkscape:window-height="986"
     inkscape:window-width="1920"
     showgrid="false"
     inkscape:document-rotation="0"
     inkscape:current-layer="layer1"
     inkscape:document-units="mm"
     inkscape:cy="667.00324"
     inkscape:cx="-637.16602"
     inkscape:zoom="0.49497475"
     inkscape:pageshadow="2"
     inkscape:pageopacity="0.0"
     borderopacity="1.0"
     bordercolor="#666666"
     pagecolor="#ffffff"
     id="base" />
  <metadata
     id="metadata5">
    <rdf:RDF>
      <cc:Work
         rdf:about="">
        <dc:format>image/svg+xml</dc:format>
        <dc:type
           rdf:resource="http://purl.org/dc/dcmitype/StillImage" />
        <dc:title />
      </cc:Work>
    </rdf:RDF>
  </metadata>
  <g
     style="opacity:0.174;mix-blend-mode:normal"
     id="layer1"
     inkscape:groupmode="layer"
     inkscape:label="Layer 1">
    <path
       sodipodi:nodetypes="ccccccccc"
       d="M 123.50767,58.588411 0.64978964,125.39835 49.448143,216.77498 149.2423,162.50706 l 29.25556,1.3137 -6.7716,-13.54044 6.7716,13.54044 -17.79642,-35.5857 z"
       style="fill:#00ffff;fill-rule:evenodd;stroke-width:0.223305"
       id="beaker" />
    <path
       transform="scale(0.26458333)"
       d="m 594.24805,589.80078 c -22.63231,-0.41599 -209.63502,10.83821 -477.10969,99.21659 l 69.75226,130.28927 244.90626,-133.17969 c 62.88964,-33.20623 107.10468,-57.0621 133.78515,-72.68164 1.09218,0.19176 2.36512,0.33357 3.84375,0.40821 l 88.61719,4.4746 14.93164,2.38672 c 0.1173,0.0188 0.17234,0.0235 0.27539,0.0391 0.7717,2.01134 1.35579,3.78211 1.38672,4.72265 l 4.7832,145.26953 h -0.2168 c -0.34975,0 -0.63085,0.28126 -0.63085,0.63086 v 242.27732 c 0,0.3498 0.28125,0.6309 0.63085,0.6309 h 4.2793 c 0.34976,0 0.63086,-0.2813 0.63086,-0.6309 V 771.37695 c 0,-0.34979 -0.28125,-0.63086 -0.63086,-0.63086 h 0.63086 l -0.49219,-145.52148 c -2e-5,-0.007 10e-6,-0.0106 0,-0.0176 l -14.28906,-15.38672 c -0.52007,-0.55991 -0.54761,-0.2605 -0.29883,0.53321 l -0.77343,-1.71875 -72.54493,-18.75196 c 0,0 -0.0692,0.0634 -0.0703,0.0645 -0.38475,-0.0832 -0.84295,-0.13631 -1.39648,-0.14649 z m 74.01172,18.83399 1.14257,0.29492 c 3.38518,0.875 -2.98016,-4.37771 -1.54492,-1.18946 z m 15.36132,16.57226 0.25391,0.27149 c 2.37478,2.5567 -0.255,-3.72172 -0.25391,-0.27149 z m 0.49219,145.53906 0.0117,3.53907 c 0.0113,3.4964 4.00425,-3.53907 0.50781,-3.53907 z M 581.70703,603.65625 c -0.0401,0.0483 -0.0971,0.10993 -0.13476,0.15625 l -0.1543,0.0312 c 0.10261,-0.0654 0.18749,-0.12261 0.28906,-0.1875 z"
       style="display:inline;fill:#ff00ff;stroke-width:0.870501"
       id="liquid"
       sodipodi:nodetypes="sccccccccccssssssscccccccccsscccccccccscsccss" />
    <path
       inkscape:transform-center-y="5.1333338e-05"
       inkscape:transform-center-x="1.4528906e-05"
       d="m 122.99958,253.87923 -2.7e-4,-3.7e-4 4.6e-4,-5e-5 z"
       inkscape:randomized="0"
       inkscape:rounded="0"
       inkscape:flatsided="true"
       sodipodi:arg2="2.5203394"
       sodipodi:arg1="1.4731418"
       sodipodi:r2="4.5939596e-06"
       sodipodi:r1="0.00026458333"
       sodipodi:cy="253.87897"
       sodipodi:cx="122.99955"
       sodipodi:sides="3"
       id="path5266"
       style="fill:#ff00ff;stroke-width:0.264583"
       sodipodi:type="star" />
  </g>
</svg>
