<?xml version="1.0" encoding="UTF-8" standalone="no"?>
<svg
   xmlns:dc="http://purl.org/dc/elements/1.1/"
   xmlns:cc="http://creativecommons.org/ns#"
   xmlns:rdf="http://www.w3.org/1999/02/22-rdf-syntax-ns#"
   xmlns:svg="http://www.w3.org/2000/svg"
   xmlns="http://www.w3.org/2000/svg"
   xmlns:sodipodi="http://sodipodi.sourceforge.net/DTD/sodipodi-0.dtd"
   xmlns:inkscape="http://www.inkscape.org/namespaces/inkscape"
   width="210mm"
   height="297mm"
   viewBox="0 0 210 297"
   version="1.1"
   id="svg3286"
   sodipodi:docname="electrolysis.svg"
   inkscape:version="1.0 (4035a4fb49, 2020-05-01)">
  <defs
     id="defs3280" />
  <sodipodi:namedview
     id="base"
     pagecolor="#ffffff"
     bordercolor="#666666"
     borderopacity="1.0"
     inkscape:pageopacity="0.0"
     inkscape:pageshadow="2"
     inkscape:zoom="0.49497475"
     inkscape:cx="40.572699"
     inkscape:cy="668.80145"
     inkscape:document-units="mm"
     inkscape:current-layer="layer1"
     inkscape:document-rotation="0"
     showgrid="false"
     inkscape:window-width="1624"
     inkscape:window-height="1020"
     inkscape:window-x="122"
     inkscape:window-y="0"
     inkscape:window-maximized="0" />
  <metadata
     id="metadata3283">
    <rdf:RDF>
      <cc:Work
         rdf:about="">
        <dc:format>image/svg+xml</dc:format>
        <dc:type
           rdf:resource="http://purl.org/dc/dcmitype/StillImage" />
      </cc:Work>
    </rdf:RDF>
  </metadata>
  <g
     inkscape:label="Layer 1"
     inkscape:groupmode="layer"
     id="layer1">
    <path
       d="M 93.073853,142.9594 V 284.55042 H 190.46472 V 169.53982 L 204.69,144.03792 190.46472,143.62756 204.69,144.03792 167.30451,142.9594 Z"
       style="opacity:0.17252396;mix-blend-mode:normal;fill:#00ffff;fill-rule:evenodd;stroke-width:0.7;stroke-miterlimit:4;stroke-dasharray:none;stroke:#000000;stroke-opacity:1"
       id="beaker"
       sodipodi:nodetypes="ccccccccc" />
    <path
       id="liquid"
       style="opacity:0.13738;mix-blend-mode:normal;fill:#ff00ff;fill-opacity:1;stroke:#000000;stroke-width:0.397289;stroke-miterlimit:4;stroke-dasharray:none;stroke-opacity:1"
       d="m 101.91067,210.77073 h 79.7548 c 4.58206,0 8.27087,3.83268 8.27087,8.59347 v 60.59483 c 0,4.76077 -0.138,4.45825 -4.72006,4.47012 l -83.72335,0.21702 c -7.927081,0.0206 -8.078351,0.29062 -8.061998,-4.47012 l 0.20887,-60.81185 c 0.01636,-4.76075 3.688806,-8.59347 8.270868,-8.59347 z"
       sodipodi:nodetypes="sssssssss" />
    <rect
       style="opacity:1;fill:#ac9393;fill-opacity:1;stroke-width:0.4;stroke:#000000;stroke-opacity:1;stroke-miterlimit:4;stroke-dasharray:none"
       id="metalplate"
       width="18.539268"
       height="73.317848"
       x="106.43733"
       y="187.86067"
       ry="0.016912712" />
    <path
       id="ironnail"
       style="opacity:0.674121;mix-blend-mode:normal;fill:#b3b3b3;fill-opacity:1;stroke-width:0.4;stroke:#000000;stroke-opacity:1;stroke-miterlimit:4;stroke-dasharray:none"
       d="m 172.32923,199.69859 a 7.7485118,1.2756697 0 0 0 -7.66672,1.27537 7.7485118,1.2756697 0 0 0 4.97541,1.19114 v 53.99774 c 0,0.0165 0.0109,0.0279 0.0243,0.0351 h -0.0155 l 2.6479,4.9413 2.64842,-4.963 h -0.0191 c 0.002,-0.005 0.006,-0.008 0.006,-0.0134 v -53.98223 a 7.7485118,1.2756697 0 0 0 5.22965,-1.20665 7.7485118,1.2756697 0 0 0 -7.74837,-1.27537 7.7485118,1.2756697 0 0 0 -0.0816,0 z" />
    <path
       id="Battery"
       style="opacity:0.495208;fill:#917c6f;fill-opacity:1;stroke:#000000;stroke-width:0.5;stroke-miterlimit:4;stroke-dasharray:none;stroke-opacity:1"
       d="m 58.303738,30.684517 h 24.731048 c 0.0073,0 0.01319,0.0059 0.01319,0.01319 v 21.896227 c 0,0.0073 -0.0059,0.0132 -0.01319,0.0132 H 58.303738 c -0.0073,0 -0.0132,-0.0059 -0.0132,-0.0132 V 30.697712 c 0,-0.0073 0.0059,-0.01319 0.0132,-0.01319 z" />
    <path
       id="positiveterminal"
       style="opacity:1;fill:#000000;fill-opacity:1;stroke:#000000;stroke-width:0.252036;stroke-miterlimit:4;stroke-dasharray:none;stroke-opacity:1"
       d="m 64.439325,48.743668 a 1.4963375,1.6098258 0 0 1 -1.483887,1.623095 1.4963375,1.6098258 0 0 1 -1.508685,-1.596417 1.4963375,1.6098258 0 0 1 1.48386,-1.623124 1.4963375,1.6098258 0 0 1 1.508712,1.596388 l -1.496286,0.01338 z" />
    <path
       id="negativeterminal"
       style="opacity:1;fill:#000000;fill-opacity:1;stroke:#000000;stroke-width:1.00458;stroke-miterlimit:4;stroke-dasharray:none;stroke-opacity:1"
       d="m 69.316882,48.667787 a 0.92932528,1.0423639 0 0 1 -0.921597,1.050952 0.92932528,1.0423639 0 0 1 -0.93699,-1.033687 0.92932528,1.0423639 0 0 1 0.921581,-1.050969 0.92932528,1.0423639 0 0 1 0.937006,1.033668 l -0.929293,0.0087 z" />
    <g
       aria-label="+"
       transform="scale(1.0345407,0.96661253)"
       id="plus"
       style="font-style:normal;font-weight:normal;font-size:3.70054px;line-height:1.25;font-family:sans-serif;fill:#000000;fill-opacity:1;stroke:#000000;stroke-width:0.0925137;stroke-opacity:1">
      <path
         d="m 61.962997,46.152597 h -0.984763 v 0.984762 h -0.299946 v -0.984762 h -0.984763 v -0.289105 h 0.984763 v -0.984763 h 0.299946 v 0.984763 h 0.984763 z"
         style="stroke:#000000;stroke-width:0.0925137;stroke-opacity:1"
         id="path5945" />
    </g>
    <g
       aria-label="-"
       transform="scale(1.1832419,0.84513572)"
       id="minus"
       style="font-style:normal;font-weight:normal;font-size:8.94432px;line-height:1.25;font-family:sans-serif;fill:#000000;fill-opacity:1;stroke:#000000;stroke-width:0.223609;stroke-opacity:1">
      <path
         d="M 59.044362,52.742669 H 56.31914 V 51.95218 h 2.725222 z"
         style="stroke:#000000;stroke-width:0.223609;stroke-opacity:1"
         id="path5948" />
    </g>
    <path
       style="fill:none;stroke:#be0000;stroke-width:1.5;stroke-linecap:butt;stroke-linejoin:miter;stroke-opacity:1;stroke-miterlimit:4;stroke-dasharray:none"
       d="M 62.943038,48.756993 C 115.46043,202.5903 115.46043,202.5903 115.46043,202.5903 Z"
       id="redwire" />
    <path
       style="fill:none;stroke:#000000;stroke-width:1.5;stroke-linecap:butt;stroke-linejoin:miter;stroke-miterlimit:4;stroke-dasharray:none;stroke-opacity:1"
       d="M 174.92994,202.18056 68.387588,48.676411 174.92994,202.18056 68.387588,48.676411 Z"
       id="blackwire" />
    <rect
       transform="matrix(0.72209642,-0.69179242,0.5734403,0.81924735,0,0)"
       ry="0.013194971"
       y="220.41022"
       x="-23.655869"
       height="11.491765"
       width="2.5371933"
       id="clip1"
       style="opacity:1;fill:#918a6f;fill-opacity:1;stroke-width:0.50295671;stroke-miterlimit:4;stroke-dasharray:none;stroke:#000000;stroke-opacity:1" />
    <rect
       inkscape:transform-center-y="51.408249"
       inkscape:transform-center-x="-30.999793"
       style="opacity:1;fill:#6c6753;fill-opacity:1;stroke-width:0.5;stroke-miterlimit:4;stroke-dasharray:none;stroke:#000000;stroke-opacity:1"
       id="clip2"
       width="3.3534551"
       height="14.729628"
       x="-252.55846"
       y="-102.49815"
       ry="0.016912721"
       transform="rotate(-151.94257)" />
    <path
       style="fill:none;stroke:#000000;stroke-width:2;stroke-linecap:butt;stroke-linejoin:miter;stroke-miterlimit:4;stroke-dasharray:none;stroke-opacity:1"
       d="M 83.047979,51.095228 C 133.36749,46.863879 141.38558,-2.0464438 141.38558,-2.0464438"
       id="decorationwire" />
  </g>
</svg>
