<?xml version="1.0" encoding="UTF-8" standalone="no"?>
<svg
   xmlns:dc="http://purl.org/dc/elements/1.1/"
   xmlns:cc="http://creativecommons.org/ns#"
   xmlns:rdf="http://www.w3.org/1999/02/22-rdf-syntax-ns#"
   xmlns:svg="http://www.w3.org/2000/svg"
   xmlns="http://www.w3.org/2000/svg"
   xmlns:sodipodi="http://sodipodi.sourceforge.net/DTD/sodipodi-0.dtd"
   xmlns:inkscape="http://www.inkscape.org/namespaces/inkscape"
   sodipodi:docname="ironnail.svg"
   inkscape:version="1.0 (4035a4fb49, 2020-05-01)"
   id="svg1415"
   version="1.1"
   viewBox="0 0 210 297"
   height="297mm"
   width="210mm">
  <defs
     id="defs1409" />
  <sodipodi:namedview
     inkscape:window-maximized="0"
     inkscape:window-y="22"
     inkscape:window-x="161"
     inkscape:window-height="1020"
     inkscape:window-width="1624"
     showgrid="false"
     inkscape:document-rotation="0"
     inkscape:current-layer="layer1"
     inkscape:document-units="mm"
     inkscape:cy="655.83313"
     inkscape:cx="395.49005"
     inkscape:zoom="0.98994949"
     inkscape:pageshadow="2"
     inkscape:pageopacity="0.0"
     borderopacity="1.0"
     bordercolor="#666666"
     pagecolor="#ffffff"
     id="base" />
  <metadata
     id="metadata1412">
    <rdf:RDF>
      <cc:Work
         rdf:about="">
        <dc:format>image/svg+xml</dc:format>
        <dc:type
           rdf:resource="http://purl.org/dc/dcmitype/StillImage" />
        <dc:title></dc:title>
      </cc:Work>
    </rdf:RDF>
  </metadata>
  <g
     id="layer1"
     inkscape:groupmode="layer"
     inkscape:label="Layer 1">
    <path
       transform="scale(0.26458333)"
       d="m 301.59961,490.71484 a 29.285714,4.8214288 0 0 0 -28.97656,4.82032 29.285714,4.8214288 0 0 0 18.80468,4.50195 v 204.08594 c 0,0.0623 0.041,0.10525 0.0918,0.13281 h -0.0586 l 10.00781,18.67578 10.00977,-18.75781 h -0.0723 c 0.007,-0.0177 0.0215,-0.0308 0.0215,-0.0508 V 500.0957 a 29.285714,4.8214288 0 0 0 19.76563,-4.56054 29.285714,4.8214288 0 0 0 -29.28516,-4.82032 29.285714,4.8214288 0 0 0 -0.30859,0 z"
       style="opacity:0.67412141;mix-blend-mode:normal;fill:#b3b3b3;fill-opacity:1;stroke-width:0.718549"
       id="ironnail" />
    <rect
       ry="0"
       y="131.11372"
       x="82.209824"
       height="0"
       width="0.1889801"
       id="rect1987"
       style="opacity:1;fill:#80e5ff;stroke-width:0.264583" />
  </g>
</svg>
