<?xml version="1.0" encoding="UTF-8" standalone="no"?>
<svg
   xmlns:dc="http://purl.org/dc/elements/1.1/"
   xmlns:cc="http://creativecommons.org/ns#"
   xmlns:rdf="http://www.w3.org/1999/02/22-rdf-syntax-ns#"
   xmlns:svg="http://www.w3.org/2000/svg"
   xmlns="http://www.w3.org/2000/svg"
   xmlns:sodipodi="http://sodipodi.sourceforge.net/DTD/sodipodi-0.dtd"
   xmlns:inkscape="http://www.inkscape.org/namespaces/inkscape"
   inkscape:version="0.92.3 (2405546, 2018-03-11)"
   sodipodi:docname="newmain1.svg"
   width="210mm"
   height="297mm"
   viewBox="0 0 210 297"
   version="1.1"
   id="svg8">
  <sodipodi:namedview
     inkscape:current-layer="layer1"
     inkscape:window-maximized="1"
     inkscape:window-y="-8"
     inkscape:window-x="-8"
     inkscape:cy="1014.5838"
     inkscape:cx="213.69829"
     inkscape:zoom="1.4253647"
     showgrid="false"
     id="namedview69"
     inkscape:window-height="716"
     inkscape:window-width="1366"
     inkscape:pageshadow="2"
     inkscape:pageopacity="0"
     guidetolerance="10"
     gridtolerance="10"
     objecttolerance="10"
     borderopacity="1"
     bordercolor="#666666"
     pagecolor="#ffffff"
     inkscape:snap-others="false"
     inkscape:object-nodes="false" />
  <defs
     id="defs2" />
  <metadata
     id="metadata5">
    <rdf:RDF>
      <cc:Work
         rdf:about="">
        <dc:format>image/svg+xml</dc:format>
        <dc:type
           rdf:resource="http://purl.org/dc/dcmitype/StillImage" />
        <dc:title />
      </cc:Work>
    </rdf:RDF>
  </metadata>
  <g
     id="layer1">
    <rect
       transform="matrix(0.99999994,3.5262182e-4,0.00141169,0.999999,0,0)"
       style="opacity:0.56230002;fill:#4d4d4d;stroke:#000000;stroke-width:0.24739489;stroke-miterlimit:4;stroke-dasharray:none"
       id="shelf"
       width="80.157539"
       height="76.977333"
       x="0.98735237"
       y="1.2263379" />
    <rect
       transform="matrix(0.9999999,4.4605848e-4,0.00111598,0.99999938,0,0)"
       style="opacity:0.69009603;fill:#000000;stroke:#000000;stroke-width:0.1144108;stroke-miterlimit:4;stroke-dasharray:none"
       id="wood1"
       width="70.815819"
       height="1.8426719"
       x="3.9880948"
       y="21.636717" />
    <rect
       transform="matrix(0.9999999,4.4580932e-4,0.0011166,0.99999938,0,0)"
       style="opacity:0.69009603;fill:#000000;stroke:#000000;stroke-width:0.11437996"
       id="wood2"
       width="69.237801"
       height="1.6574944"
       x="5.2995739"
       y="42.937294" />
    <rect
       transform="matrix(0.99999991,4.2811872e-4,0.00116274,0.99999932,0,0)"
       style="opacity:0.69009603;fill:#000000;stroke:#000000;stroke-width:0.11647376"
       id="wood3"
       width="68.197502"
       height="1.47023"
       x="6.7968702"
       y="65.165184" />
    <rect
       transform="matrix(0.99999979,6.4486311e-4,7.7193389e-4,0.9999997,0,0)"
       ry="0.0033236088"
       y="28.387789"
       x="9.908473"
       height="14.40809"
       width="3.3895943"
       id="metalplate"
       style="opacity:0.81150196;fill:#ac9393;stroke:#000000;stroke-width:0.11431314;stroke-miterlimit:4;stroke-dasharray:none;stroke-opacity:1" />
    <path
       id="box"
       style="fill:#e3dbdb;stroke-width:0.01610687"
       d="m 45.100417,15.668305 11.783494,0.0284 c 0.527897,9.63e-4 0.959239,0.437415 0.96712,0.977915 l 0.05794,3.971091 c 0.0078,0.54049 -0.410778,0.974593 -0.938685,0.973312 l -11.783475,-0.0284 c -0.527917,-9.62e-4 -0.95925,-0.437424 -0.967132,-0.977914 l -0.05794,-3.971091 c -0.0078,-0.54049 0.41077,-0.974594 0.938675,-0.973314 z"
       inkscape:connector-curvature="0" />
    <rect
       transform="matrix(0.99999984,5.5873026e-4,8.9093379e-4,0.9999996,0,0)"
       ry="0.020280682"
       y="13.387086"
       x="44.203888"
       height="2.2486088"
       width="13.556105"
       id="lid"
       style="fill:#483737;stroke-width:0.0317179" />
    <path
       id="Sticker"
       style="fill:#ffffff;stroke-width:0.04747994"
       d="m 45.882947,17.026261 10.295413,0.0079 0.0021,3.414064 -10.295385,-0.0079 z"
       inkscape:connector-curvature="0" />
    <text
       transform="matrix(0.76990756,7.0911289e-4,7.0201144e-4,1.2988579,0,0)"
       xml:space="preserve"
       style="font-style:normal;font-weight:normal;font-size:1.62309206px;line-height:1.25;font-family:sans-serif;fill:#000000;fill-opacity:1;stroke:none;stroke-width:0.17390324"
       x="60.019329"
       y="14.980789"
       id="CuSO4"><tspan
         id="tspan867"
         x="60.019329"
         y="14.980789"
         style="font-size:1.62309206px;stroke-width:0.17390324">CuSO4.5H2O</tspan></text>
    <path
       d="m 23.871651,11.81824 12.757485,0.0056 c 0.0037,0 0.0073,0.0023 0.0073,0.0056 l 0.0097,9.68497 c 0,0.0033 -0.0024,0.0056 -0.0073,0.0056 l -12.757463,-0.0056 c -0.0037,0 -0.0072,-0.0023 -0.0073,-0.0056 l -0.01041,-9.68495 c 0,-0.0033 0.0024,-0.0056 0.0073,-0.0056 z"
       style="opacity:0.853035;fill:#917c6f;fill-opacity:1;stroke:#000000;stroke-width:0.23883268;stroke-miterlimit:4;stroke-dasharray:none;stroke-opacity:1"
       id="Battery"
       inkscape:connector-curvature="0" />
    <ellipse
       ry="0.50751376"
       rx="0.51495945"
       transform="matrix(0.99999986,5.3804588e-4,9.251844e-4,0.99999957,0,0)"
       style="opacity:0.853035;fill:#000000;fill-opacity:1;stroke:#000000;stroke-width:0.104712;stroke-miterlimit:4;stroke-dasharray:none"
       id="positiveterminal"
       cx="28.158794"
       cy="19.585888" />
    <ellipse
       transform="matrix(0.99999986,5.3804588e-4,9.251844e-4,0.99999957,0,0)"
       style="opacity:0.853035;fill:#000000;fill-opacity:1;stroke:#000000;stroke-width:0.104712;stroke-miterlimit:4;stroke-dasharray:none"
       id="negativeterminal"
       cx="30.121061"
       cy="19.503973"
       rx="0.51495945"
       ry="0.49114233" />
    <text
       transform="matrix(1.0073091,5.419899e-4,9.1847717e-4,0.99274443,0,0)"
       xml:space="preserve"
       style="font-style:normal;font-weight:normal;font-size:2.46267px;line-height:1.25;font-family:sans-serif;fill:#000000;fill-opacity:1;stroke:none;stroke-width:0.0923497"
       x="26.585714"
       y="18.591125"
       id="plusminus"><tspan
         id="tspan887"
         x="26.585714"
         y="18.591125"
         style="font-size:2.46267px;stroke-width:0.0923497">+ -</tspan></text>
    <rect
       transform="matrix(0.99999985,5.4620236e-4,9.1136855e-4,0.99999958,0,0)"
       ry="0.27653408"
       y="23.7747"
       x="51.173321"
       height="18.435606"
       width="1.2365466"
       id="glassrod"
       style="opacity:0.21300001;fill:#80e5ff;stroke:#000000;stroke-width:0.14056392;stroke-miterlimit:4;stroke-dasharray:none;stroke-opacity:1" />
    <path
       d="m 63.208279,49.065563 a 1.8887721,0.32762464 0.05526684 0 0 -1.868658,0.325832 1.8887721,0.32762464 0.05526684 0 0 1.212977,0.307056 l 0.0074,13.867999 c 0,0.0044 0.0025,0.0075 0.0058,0.009 h -0.0042 l 0.646134,1.269653 0.644896,-1.274035 -0.005,-1.4e-5 c 3.51e-4,-0.0012 0.0017,-0.003 0.0017,-0.003 l -0.0074,-13.86396 a 1.8887721,0.32762464 0.05526684 0 0 1.274599,-0.308725 1.8887721,0.32762464 0.05526684 0 0 -1.888915,-0.329275 1.8887721,0.32762464 0.05526684 0 0 -0.01988,-3e-5 z"
       style="opacity:0.67412103;mix-blend-mode:normal;fill:#b3b3b3;fill-opacity:1;stroke:#000000;stroke-width:0.18023637;stroke-miterlimit:4;stroke-dasharray:none;stroke-opacity:1"
       id="ironnail"
       inkscape:connector-curvature="0" />
    <path
       d="m 8.2353149,59.833873 7.7740471,-7.196657 c 0.0018,-0.0021 0.0044,-0.0021 0.0052,-7.54e-4 l 8.772056,5.312475 c 0.0018,8.17e-4 0.0017,0.0021 3e-6,0.004 l -7.774036,7.196664 c -0.0018,0.0021 -0.0044,0.0021 -0.0052,7.44e-4 L 8.2353286,59.837816 c -0.00172,-8.26e-4 -0.00163,-0.0021 -4.1e-6,-0.004 z"
       style="opacity:0.67412103;mix-blend-mode:normal;fill:#aa8800;fill-opacity:1;stroke:#000000;stroke-width:0.04538332;stroke-miterlimit:4;stroke-dasharray:none;stroke-opacity:1"
       id="sandpaper"
       inkscape:connector-curvature="0" />
    <path
       transform="matrix(0.31000393,0.00558542,-0.01983386,0.08112902,76.602548,228.10265)"
       d="m 88.733488,126.95304 18.144852,25.87272 -31.478856,2.77754 z"
       id="heap2-6"
       style="display:none;opacity:1;fill:#00ffff;stroke:#000000;stroke-width:0.656527;stroke-miterlimit:4;stroke-dasharray:none;stroke-opacity:1" />
    <path
       style="display:none;opacity:1;fill:#00ffff;stroke:#000000;stroke-width:0.656527;stroke-miterlimit:4;stroke-dasharray:none;stroke-opacity:1"
       id="heap1-5"
       d="m 88.733488,126.95304 18.144852,25.87272 -31.478856,2.77754 z"
       transform="matrix(0.31000393,0.00558542,-0.01983386,0.08112902,83.753534,228.00477)" />
    <g
       transform="matrix(0.16738632,0,0,0.12325286,124.42996,76.003386)"
       id="layer1-5"
       style="fill:#cccccc">
      <path
         style="fill:#cccccc;stroke-width:1"
         d="m -1265.7148,293.94727 v 411.42968 h 551.42964 v 312.68755 h 151.17969 V 705.37695 H 1011.4277 v 304.11715 h 151.1817 V 705.37695 h 700.248 V 293.94727 Z"
         transform="scale(0.26458333)"
         id="table" />
      <rect
         id="rect16"
         width="846.66614"
         height="13.854528"
         x="-343.20239"
         y="64.042984"
         style="fill:#cccccc;stroke-width:0.269394"
         ry="0" />
      <rect
         style="fill:#cccccc;stroke-width:0.264583"
         id="rect18"
         width="59.720001"
         height="39.310001"
         x="-261.55951"
         y="108.0119" />
      <rect
         style="fill:#cccccc;stroke-width:0.264583"
         id="rect20"
         width="60"
         height="40"
         x="-133.04762"
         y="108.01189" />
      <rect
         style="fill:#cccccc;stroke-width:0.264583"
         id="rect22"
         width="60"
         height="40"
         x="-18.142859"
         y="106.49998" />
      <rect
         style="fill:#cccccc;stroke-width:0.264583"
         id="rect24"
         width="60"
         height="40"
         x="97.51786"
         y="105.74404" />
      <rect
         style="fill:#cccccc;stroke-width:0.264583"
         id="rect26"
         width="60"
         height="44.601189"
         x="217.71426"
         y="102.72023" />
      <rect
         style="fill:#cccccc;stroke-width:0.312215"
         id="rect28"
         width="60"
         height="40"
         x="344.71429"
         y="105.80953" />
      <circle
         style="fill:#cccccc;stroke-width:0.264583"
         id="path34"
         cx="128.88988"
         cy="127.28869"
         r="3.4017856" />
      <circle
         r="3.4017856"
         cy="127.28869"
         cx="13.985121"
         id="circle36"
         style="fill:#cccccc;stroke-width:0.264583" />
      <circle
         style="fill:#cccccc;stroke-width:0.264583"
         id="circle38"
         cx="-104.69939"
         cy="128.80058"
         r="3.4017856" />
      <circle
         r="3.4017856"
         cy="130.3125"
         cx="-230.94345"
         id="circle40"
         style="fill:#cccccc;stroke-width:0.264583" />
      <circle
         style="fill:#cccccc;stroke-width:0.264583"
         id="circle44"
         cx="245.30655"
         cy="125.02083"
         r="3.4017856" />
      <circle
         style="fill:#cccccc;stroke-width:0.264583"
         id="circle48"
         cx="373.81845"
         cy="125.77679"
         r="3.4017856" />
    </g>
    <path
       d="M 7.3717785,5.6031146 V 21.546287 H 19.757067 V 8.5960743 l 1.809044,-2.871518 -1.809044,-0.046209 1.809044,0.046209 -4.754349,-0.1214417 z"
       style="opacity:0.27156599;mix-blend-mode:normal;fill:#00ffff;fill-rule:evenodd;stroke:#000000;stroke-width:0.08376484;stroke-miterlimit:4;stroke-dasharray:none;stroke-opacity:1"
       id="beaker-7"
       inkscape:connector-curvature="0" />
    <path
       id="liquid"
       style="opacity:0.122;mix-blend-mode:normal;fill:#000080;fill-opacity:1;stroke:#000000;stroke-width:0.04512466;stroke-miterlimit:4;stroke-dasharray:none;stroke-opacity:1"
       d="M 8.4847024,14.084505 H 18.652309 c 0.584147,0 1.054419,0.387845 1.054419,0.869611 v 6.13185 c 0,0.481761 -0.01759,0.451149 -0.601741,0.452351 l -10.6735405,0.02195 c -1.0105905,0.002 -1.0298753,0.0294 -1.0277906,-0.452351 l 0.026628,-6.153811 c 0.00209,-0.481762 0.4702706,-0.869611 1.0544185,-0.869611 z"
       inkscape:connector-curvature="0" />
    <rect
       style="opacity:1;fill:#ac9393;fill-opacity:1;stroke:#000000;stroke-width:0.04154582;stroke-miterlimit:4;stroke-dasharray:none;stroke-opacity:1"
       id="metalplate-1"
       width="1.852294"
       height="7.9164042"
       x="8.7023716"
       y="11.934443"
       ry="0.0018261292" />
    <path
       id="ironnail-8"
       style="opacity:0.67412103;mix-blend-mode:normal;fill:#b3b3b3;fill-opacity:1;stroke:#000000;stroke-width:0.04435186;stroke-miterlimit:4;stroke-dasharray:none;stroke-opacity:1"
       d="m 15.290819,11.636363 a 0.77206142,0.15740171 0 0 0 -0.763912,0.157365 0.77206142,0.15740171 0 0 0 0.495749,0.146971 v 6.662647 c 0,0.002 0.0011,0.0035 0.0024,0.0043 h -0.0015 l 0.263838,0.609693 0.263888,-0.612371 h -0.0019 c 2.09e-4,-6.17e-4 5.98e-4,-9.87e-4 5.98e-4,-0.0016 v -6.660732 a 0.77206142,0.15740171 0 0 0 0.521082,-0.148886 0.77206142,0.15740171 0 0 0 -0.772047,-0.157365 0.77206142,0.15740171 0 0 0 -0.0082,0 z"
       inkscape:connector-curvature="0" />
    <path
       id="redwire"
       d="M 9.0465744,12.547768 C 21.366139,5.310048 28.216958,19.673143 28.216958,19.673143"
       style="fill:none;stroke:#ad0000;stroke-width:0.26458299px;stroke-linecap:butt;stroke-linejoin:miter;stroke-opacity:1"
       inkscape:connector-curvature="0" />
    <path
       id="blackwire"
       d="m 15.505924,12.227124 c 13.796353,-0.613614 14.457811,6.804169 14.457811,6.804169"
       style="fill:none;stroke:#000000;stroke-width:0.26458299px;stroke-linecap:butt;stroke-linejoin:miter;stroke-opacity:1"
       inkscape:connector-curvature="0" />
    <rect
       style="opacity:1;fill:#6c6753;fill-opacity:1;stroke:#000000;stroke-width:0.0498733;stroke-miterlimit:4;stroke-dasharray:none;stroke-opacity:1"
       id="clip2"
       width="0.33497185"
       height="1.4671481"
       x="-19.508245"
       y="-4.107707"
       ry="0.0016845957"
       transform="matrix(-0.88346789,-0.46849172,0.47222417,-0.88147849,0,0)" />
    <rect
       transform="matrix(0.97653753,0.21534726,-0.33919066,0.94071765,0,0)"
       ry="0.0016536332"
       y="9.3615971"
       x="12.867032"
       height="1.4401823"
       width="0.30873117"
       id="clip1"
       style="opacity:1;fill:#918a6f;fill-opacity:1;stroke:#000000;stroke-width:0.0621097;stroke-miterlimit:4;stroke-dasharray:none;stroke-opacity:1" />
    <path
       d="m 39.725483,34.968723 a 3.22709,1.8489487 0 0 0 -2.998398,1.165503 c -0.02446,-0.006 -0.04935,-0.0099 -0.07495,-0.0099 H 25.89517 c -0.2554,0 -0.461006,0.309224 -0.461006,0.693343 0,0.384118 0.205606,0.693345 0.461006,0.693345 h 10.756964 c 0.0256,0 0.05046,-0.0039 0.07491,-0.0099 a 3.22709,1.8489487 0 0 0 2.998504,1.165422 3.22709,1.8489487 0 0 0 3.22709,-1.848893 3.22709,1.8489487 0 0 0 -3.22709,-1.848971 3.22709,1.8489487 0 0 1 -5.3e-5,0 z"
       style="fill:#c8b7b7;stroke:#000000;stroke-width:0.04985957;stroke-miterlimit:4;stroke-dasharray:none;stroke-opacity:1"
       id="fancyspoon"
       inkscape:connector-curvature="0" />
    <path
       transform="matrix(0.10389037,0,0,0.11434104,16.063473,31.776828)"
       d="m 111.57969,52.150547 -1e-5,-2.3e-5 2e-5,0 z"
       id="path5335"
       style="fill:#00ffff;stroke-width:0.264583" />
    <path
       d="m 41.151739,36.784022 c -0.957926,0.301849 -2.056797,0.517505 -2.93514,-0.02775 0.421796,-0.482116 0.909136,-1.032962 1.330931,-1.515079 z"
       style="fill:#00ffff;stroke:#000000;stroke-width:0.0251125;stroke-miterlimit:4;stroke-dasharray:none;stroke-opacity:1"
       id="bluepowder"
       inkscape:connector-curvature="0" />
    <rect
       style="fill:#e3dbdb;stroke:#000000;stroke-width:0.03340936;stroke-miterlimit:4;stroke-dasharray:none;stroke-opacity:1"
       id="weighingmachine-7"
       width="14.605252"
       height="4.4233599"
       x="38.060173"
       y="59.437244"
       ry="0" />
    <rect
       style="fill:#536c53;stroke:#000000;stroke-width:0.04029996;stroke-miterlimit:4;stroke-dasharray:none;stroke-opacity:1"
       id="Display"
       width="9.4001665"
       height="2.1677291"
       x="40.733074"
       y="60.564594" />
    <rect
       style="fill:#000000;stroke-width:0.02972884"
       id="stand2-6"
       width="0.88146853"
       height="1.2768425"
       x="42.785919"
       y="63.820145" />
    <rect
       y="63.825687"
       x="47.509865"
       height="1.2768425"
       width="0.88146853"
       id="stand1"
       style="fill:#000000;stroke-width:0.02972884" />
    <rect
       style="opacity:0.43000004;fill:#aaeeff;stroke:#000000;stroke-width:0.04465245;stroke-miterlimit:4;stroke-dasharray:none;stroke-opacity:1"
       id="shield"
       width="12.472588"
       height="11.105825"
       x="38.935574"
       y="48.024986"
       onclick="Heyy" />
    <path
       id="dish"
       style="opacity:1;fill:#c8b7b7;stroke:#000000;stroke-width:0.04197876;stroke-miterlimit:4;stroke-dasharray:none;stroke-opacity:1"
       d="m 40.642265,58.037588 7.903528,0.01404 -0.587964,1.262303 h -6.654096 z"
       inkscape:connector-curvature="0" />
    <path
       style="opacity:1;fill:#00ffff;stroke:#000000;stroke-width:0.03274276;stroke-miterlimit:4;stroke-dasharray:none;stroke-opacity:1"
       id="heap2"
       d="m 46.71853,57.220053 1.502556,0.737081 -2.884603,0.01659 z"
       inkscape:connector-curvature="0" />
    <path
       d="m 43.036068,57.304454 1.504025,0.734803 -2.887425,0.01654 z"
       id="heap1"
       style="opacity:1;fill:#00ffff;stroke:#000000;stroke-width:0.03270808;stroke-miterlimit:4;stroke-dasharray:none;stroke-opacity:1"
       inkscape:connector-curvature="0" />
    <rect
       style="opacity:0.91600001;fill:#000000;stroke-width:0.26458332"
       id="rect1568"
       width="141.72032"
       height="1.7076105"
       x="66.982574"
       y="83.896866" />
    <rect
       style="opacity:0.91600001;fill:#000000;stroke-width:0.26458332"
       id="rect1570"
       width="6.6953902"
       height="10.196945"
       x="92.795967"
       y="99.006187" />
    <rect
       style="opacity:0.91600001;fill:#000000;stroke-width:0.26458332"
       id="rect1572"
       width="6.6954789"
       height="9.9174585"
       x="169.22369"
       y="99.006187" />
    <rect
       style="opacity:0.91600001;fill:#4d4d4d;stroke-width:0.26458332"
       id="rect1574"
       width="18"
       height="7"
       x="84.159607"
       y="87.246269" />
    <rect
       style="opacity:0.91600001;fill:#4d4d4d;stroke-width:0.26458332"
       id="rect1576"
       width="18"
       height="7"
       x="126.41849"
       y="87.460686" />
    <rect
       style="opacity:0.91600001;fill:#4d4d4d;stroke-width:0.26458332"
       id="rect1578"
       width="18"
       height="7"
       x="167.57799"
       y="86.926147" />
    <ellipse
       style="opacity:0.91600001;fill:#000000;stroke-width:0.26458332"
       id="path1584"
       cx="176.79878"
       cy="90.40065"
       rx="1.4699824"
       ry="1.3363476" />
    <ellipse
       ry="1.3363476"
       rx="1.4699824"
       cy="90.667923"
       cx="135.10474"
       id="ellipse1586"
       style="opacity:0.91600001;fill:#000000;stroke-width:0.26458332" />
    <ellipse
       style="opacity:0.91600001;fill:#000000;stroke-width:0.26458332"
       id="ellipse1588"
       cx="93.410698"
       cy="90.133385"
       rx="1.4699824"
       ry="1.3363476" />
    <path
       d="m 41.66651,60.927374 7.802031,0.0035 0.0016,1.515221 -7.802009,-0.0035 z"
       style="fill:#ffffff;stroke-width:0.02753558"
       id="path951"
       inkscape:connector-curvature="0" />
    <text
       xml:space="preserve"
       style="font-style:normal;font-weight:normal;font-size:1.90646684px;line-height:1.25;font-family:sans-serif;letter-spacing:0px;word-spacing:0px;fill:#000000;fill-opacity:1;stroke:none;stroke-width:0.04766167"
       x="38.575024"
       y="68.797646"
       id="text955"
       transform="scale(1.1066235,0.90364971)"><tspan
         sodipodi:role="line"
         id="tspan953"
         x="38.575024"
         y="68.797646"
         style="stroke-width:0.04766167">00.00</tspan></text>
    <text
       xml:space="preserve"
       style="font-style:normal;font-weight:normal;font-size:1.83306134px;line-height:1.25;font-family:sans-serif;letter-spacing:0px;word-spacing:0px;display:none;fill:#000000;fill-opacity:1;stroke:none;stroke-width:0.04582654"
       x="33.927036"
       y="59.364891"
       id="text959"
       transform="scale(0.94485989,1.058358)"><tspan
         sodipodi:role="line"
         id="tspan957"
         x="33.927036"
         y="59.364891"
         style="stroke-width:0.04582654">39.00</tspan></text>
    <text
       xml:space="preserve"
       style="font-style:normal;font-weight:normal;font-size:1.91037822px;line-height:1.25;font-family:sans-serif;letter-spacing:0px;word-spacing:0px;display:none;fill:#000000;fill-opacity:1;stroke:none;stroke-width:0.04775945"
       x="33.044464"
       y="61.107079"
       id="text963"
       transform="scale(0.97595055,1.0246421)"><tspan
         sodipodi:role="line"
         id="tspan961"
         x="33.044464"
         y="61.107079"
         style="stroke-width:0.04775945">39.90</tspan></text>
  </g>
</svg>
