<?xml version="1.0" encoding="UTF-8" standalone="no"?>
<svg
   xmlns:dc="http://purl.org/dc/elements/1.1/"
   xmlns:cc="http://creativecommons.org/ns#"
   xmlns:rdf="http://www.w3.org/1999/02/22-rdf-syntax-ns#"
   xmlns:svg="http://www.w3.org/2000/svg"
   xmlns="http://www.w3.org/2000/svg"
   xmlns:sodipodi="http://sodipodi.sourceforge.net/DTD/sodipodi-0.dtd"
   xmlns:inkscape="http://www.inkscape.org/namespaces/inkscape"
   inkscape:version="1.0 (4035a4fb49, 2020-05-01)"
   sodipodi:docname="newmain1.svg"
   width="210mm"
   height="297mm"
   viewBox="0 0 210 297"
   version="1.1"
   id="svg8">
  <sodipodi:namedview
     inkscape:current-layer="layer1"
     inkscape:window-maximized="1"
     inkscape:window-y="-11"
     inkscape:window-x="-11"
     inkscape:cy="221.90123"
     inkscape:cx="148.98969"
     inkscape:zoom="16.126161"
     showgrid="false"
     id="namedview69"
     inkscape:window-height="986"
     inkscape:window-width="1920"
     inkscape:pageshadow="2"
     inkscape:pageopacity="0"
     guidetolerance="10"
     gridtolerance="10"
     objecttolerance="10"
     borderopacity="1"
     bordercolor="#666666"
     pagecolor="#ffffff" />
  <defs
     id="defs2" />
  <metadata
     id="metadata5">
    <rdf:RDF>
      <cc:Work
         rdf:about="">
        <dc:format>image/svg+xml</dc:format>
        <dc:type
           rdf:resource="http://purl.org/dc/dcmitype/StillImage" />
        <dc:title />
      </cc:Work>
    </rdf:RDF>
  </metadata>
  <g
     id="layer1">
    <rect
       transform="matrix(0.99999991,4.1297616e-4,0.00120538,0.99999927,0,0)"
       style="opacity:0.56230002;fill:#4d4d4d;stroke:#000000;stroke-width:0.21311899;stroke-miterlimit:4;stroke-dasharray:none"
       id="shelf"
       width="63.806946"
       height="71.763252"
       x="1.5282648"
       y="1.2417206" />
    <rect
       transform="matrix(0.99999986,5.3804588e-4,9.251844e-4,0.99999957,0,0)"
       style="opacity:0.690096;fill:#000000;stroke:#000000;stroke-width:0.104712;stroke-miterlimit:4;stroke-dasharray:none"
       id="wood1"
       width="59.012768"
       height="1.852214"
       x="3.9873729"
       y="21.631493" />
    <rect
       transform="matrix(0.99999986,5.3804588e-4,9.251844e-4,0.99999957,0,0)"
       style="opacity:0.690096;fill:#000000;stroke:#000000;stroke-width:0.104712"
       id="wood2"
       width="57.697197"
       height="1.6669924"
       x="5.302958"
       y="42.931957" />
    <rect
       transform="matrix(0.99999986,5.3804588e-4,9.251844e-4,0.99999957,0,0)"
       style="opacity:0.690096;fill:#000000;stroke:#000000;stroke-width:0.104712"
       id="wood3"
       width="54.690174"
       height="1.4817711"
       x="6.806469"
       y="65.158531" />
    <rect
       transform="matrix(0.99999986,5.3804588e-4,9.251844e-4,0.99999957,0,0)"
       ry="0.0027809048"
       y="28.384056"
       x="9.8993244"
       height="12.055428"
       width="3.399164"
       id="metalplate"
       style="opacity:0.811502;fill:#ac9393;stroke:#000000;stroke-width:0.104712;stroke-miterlimit:4;stroke-dasharray:none;stroke-opacity:1" />
    <path
       id="box"
       style="fill:#e3dbdb;stroke-width:0.0141592"
       d="m 44.952524,15.668305 9.927153,0.02605 c 0.444734,8.83e-4 0.808123,0.401234 0.814763,0.897027 l 0.04881,3.642623 c 0.0066,0.495783 -0.346065,0.89398 -0.790807,0.892805 l -9.927136,-0.02605 c -0.44475,-8.83e-4 -0.808132,-0.401243 -0.814772,-0.897026 l -0.04881,-3.642624 c -0.0066,-0.495783 0.346058,-0.89398 0.790799,-0.892806 z" />
    <rect
       transform="matrix(0.99999986,5.3804588e-4,9.251844e-4,0.99999957,0,0)"
       ry="0.016741097"
       y="14.339613"
       x="44.202553"
       height="1.8561594"
       width="11.620349"
       id="lid"
       style="fill:#483737;stroke-width:0.0266807" />
    <path
       id="Sticker"
       style="fill:#ffffff;stroke-width:0.0251133"
       d="m 46.834558,17.813801 6.48973,0.0035 0.0013,1.515221 -6.489712,-0.0035 z" />
    <text
       transform="matrix(1.0073091,5.419899e-4,9.1847717e-4,0.99274443,0,0)"
       xml:space="preserve"
       style="font-style:normal;font-weight:normal;font-size:0.86192799px;line-height:1.25;font-family:sans-serif;fill:#000000;fill-opacity:1;stroke:none;stroke-width:0.0923497"
       x="47.178394"
       y="18.682291"
       id="CuSO4"><tspan
         id="tspan867"
         x="47.178394"
         y="18.682291"
         style="font-size:0.86192799px;stroke-width:0.0923497">CuSO4.5H2O</tspan></text>
    <path
       d="m 26.199547,13.951818 8.695205,0.0044 c 0.0025,0 0.005,0.0018 0.005,0.0044 l 0.0066,7.587199 c 0,0.0026 -0.0017,0.0044 -0.005,0.0044 l -8.695189,-0.0044 c -0.0025,0 -0.0049,-0.0018 -0.005,-0.0044 l -0.0071,-7.587182 c 0,-0.0026 0.0017,-0.0044 0.005,-0.0044 z"
       style="opacity:0.853035;fill:#917c6f;fill-opacity:1;stroke:#000000;stroke-width:0.174519;stroke-miterlimit:4;stroke-dasharray:none;stroke-opacity:1"
       id="Battery" />
    <ellipse
       ry="0.50751376"
       rx="0.51495945"
       transform="matrix(0.99999986,5.3804588e-4,9.251844e-4,0.99999957,0,0)"
       style="opacity:0.853035;fill:#000000;fill-opacity:1;stroke:#000000;stroke-width:0.104712;stroke-miterlimit:4;stroke-dasharray:none"
       id="positiveterminal"
       cx="28.158794"
       cy="19.585888" />
    <ellipse
       transform="matrix(0.99999986,5.3804588e-4,9.251844e-4,0.99999957,0,0)"
       style="opacity:0.853035;fill:#000000;fill-opacity:1;stroke:#000000;stroke-width:0.104712;stroke-miterlimit:4;stroke-dasharray:none"
       id="negativeterminal"
       cx="30.285072"
       cy="19.569513"
       rx="0.51495945"
       ry="0.49114233" />
    <text
       transform="matrix(1.0073091,5.419899e-4,9.1847717e-4,0.99274443,0,0)"
       xml:space="preserve"
       style="font-style:normal;font-weight:normal;font-size:2.46267px;line-height:1.25;font-family:sans-serif;fill:#000000;fill-opacity:1;stroke:none;stroke-width:0.0923497"
       x="26.585714"
       y="18.591125"
       id="plusminus"><tspan
         id="tspan887"
         x="26.585714"
         y="18.591125"
         style="font-size:2.46267px;stroke-width:0.0923497">+ -</tspan></text>
    <rect
       transform="matrix(0.99999986,5.3804588e-4,9.251844e-4,0.99999957,0,0)"
       ry="0.27261069"
       y="24.306028"
       x="39.358925"
       height="18.174046"
       width="1.2374822"
       id="glassrod"
       style="opacity:0.213;fill:#80e5ff;stroke:#000000;stroke-width:0.139616;stroke-miterlimit:4;stroke-dasharray:none;stroke-opacity:1" />
    <path
       d="M 51.827141,31.876903 A 1.9124206,0.19415931 0.03170109 0 0 49.935086,32.07 1.9124206,0.19415931 0.03170109 0 0 51.16325,32.25197 l 0.0074,8.218552 c 0,0.0026 0.0025,0.0044 0.0058,0.0053 h -0.0042 l 0.654225,0.752431 0.65297,-0.755028 -0.005,-8e-6 c 3.55e-4,-6.89e-4 0.0017,-0.0018 0.0017,-0.0018 l -0.0074,-8.216159 a 1.9124206,0.19415931 0.03170109 0 0 1.290558,-0.182959 1.9124206,0.19415931 0.03170109 0 0 -1.912566,-0.195137 1.9124206,0.19415931 0.03170109 0 0 -0.02013,-1.8e-5 z"
       style="opacity:0.674121;mix-blend-mode:normal;fill:#b3b3b3;fill-opacity:1;stroke:#000000;stroke-width:0.139616;stroke-miterlimit:4;stroke-dasharray:none;stroke-opacity:1"
       id="ironnail" />
    <path
       d="m 8.8891114,59.823256 7.4679546,-6.236544 c 0.0017,-0.0018 0.0042,-0.0018 0.005,-6.53e-4 l 8.426669,4.603732 c 0.0017,7.08e-4 0.0016,0.0018 3e-6,0.0035 l -7.467945,6.23655 c -0.0017,0.0018 -0.0042,0.0018 -0.005,6.45e-4 l -8.4266684,-4.60381 c -0.00165,-7.15e-4 -0.00157,-0.0018 -4e-6,-0.0035 z"
       style="opacity:0.674121;mix-blend-mode:normal;fill:#aa8800;fill-opacity:1;stroke:#000000;stroke-width:0.0414076;stroke-miterlimit:4;stroke-dasharray:none;stroke-opacity:1"
       id="sandpaper" />
    <path
       transform="matrix(0.31000393,0.00558542,-0.01983386,0.08112902,76.602548,228.10265)"
       d="m 88.733488,126.95304 18.144852,25.87272 -31.478856,2.77754 z"
       id="heap2-6"
       style="display:none;opacity:1;fill:#00ffff;stroke:#000000;stroke-width:0.656527;stroke-miterlimit:4;stroke-dasharray:none;stroke-opacity:1" />
    <path
       style="display:none;opacity:1;fill:#00ffff;stroke:#000000;stroke-width:0.656527;stroke-miterlimit:4;stroke-dasharray:none;stroke-opacity:1"
       id="heap1-5"
       d="m 88.733488,126.95304 18.144852,25.87272 -31.478856,2.77754 z"
       transform="matrix(0.31000393,0.00558542,-0.01983386,0.08112902,83.753534,228.00477)" />
    <g
       transform="matrix(0.16738632,0,0,0.12325286,124.42996,76.003386)"
       id="layer1-5"
       style="fill:#cccccc">
      <path
         style="fill:#cccccc;stroke-width:1"
         d="m -1265.7148,293.94727 v 411.42968 h 551.42964 v 312.68755 h 151.17969 V 705.37695 H 1011.4277 v 304.11715 h 151.1817 V 705.37695 h 700.248 V 293.94727 Z"
         transform="scale(0.26458333)"
         id="table" />
      <rect
         id="rect16"
         width="846.66614"
         height="13.854528"
         x="-343.20239"
         y="64.042984"
         style="fill:#cccccc;stroke-width:0.269394"
         ry="0" />
      <rect
         style="fill:#cccccc;stroke-width:0.264583"
         id="rect18"
         width="59.720001"
         height="39.310001"
         x="-261.55951"
         y="108.0119" />
      <rect
         style="fill:#cccccc;stroke-width:0.264583"
         id="rect20"
         width="60"
         height="40"
         x="-133.04762"
         y="108.01189" />
      <rect
         style="fill:#cccccc;stroke-width:0.264583"
         id="rect22"
         width="60"
         height="40"
         x="-18.142859"
         y="106.49998" />
      <rect
         style="fill:#cccccc;stroke-width:0.264583"
         id="rect24"
         width="60"
         height="40"
         x="97.51786"
         y="105.74404" />
      <rect
         style="fill:#cccccc;stroke-width:0.264583"
         id="rect26"
         width="60"
         height="44.601189"
         x="217.71426"
         y="102.72023" />
      <rect
         style="fill:#cccccc;stroke-width:0.312215"
         id="rect28"
         width="60"
         height="40"
         x="344.71429"
         y="105.80953" />
      <circle
         style="fill:#cccccc;stroke-width:0.264583"
         id="path34"
         cx="128.88988"
         cy="127.28869"
         r="3.4017856" />
      <circle
         r="3.4017856"
         cy="127.28869"
         cx="13.985121"
         id="circle36"
         style="fill:#cccccc;stroke-width:0.264583" />
      <circle
         style="fill:#cccccc;stroke-width:0.264583"
         id="circle38"
         cx="-104.69939"
         cy="128.80058"
         r="3.4017856" />
      <circle
         r="3.4017856"
         cy="130.3125"
         cx="-230.94345"
         id="circle40"
         style="fill:#cccccc;stroke-width:0.264583" />
      <circle
         style="fill:#cccccc;stroke-width:0.264583"
         id="circle44"
         cx="245.30655"
         cy="125.02083"
         r="3.4017856" />
      <circle
         style="fill:#cccccc;stroke-width:0.264583"
         id="circle48"
         cx="373.81845"
         cy="125.77679"
         r="3.4017856" />
    </g>
    <path
       d="M 7.365189,7.4662763 V 21.553533 h 9.739162 V 10.110831 l 1.42254,-2.5372497 -1.42254,-0.04083 1.42254,0.04083 -3.738578,-0.107305 z"
       style="opacity:0.271566;mix-blend-mode:normal;fill:#00ffff;fill-rule:evenodd;stroke:#000000;stroke-width:0.0698225;stroke-miterlimit:4;stroke-dasharray:none;stroke-opacity:1"
       id="beaker-7" />
    <path
       id="liquid"
       style="opacity:0.122;mix-blend-mode:normal;fill:#000080;fill-opacity:1;stroke:#000000;stroke-width:0.039628;stroke-miterlimit:4;stroke-dasharray:none;stroke-opacity:1"
       d="M 8.2488776,14.213001 H 16.22442 c 0.458209,0 0.827093,0.381323 0.827093,0.854987 v 6.028736 c 0,0.473661 -0.0138,0.443563 -0.47201,0.444744 l -8.3723997,0.02159 c -0.7927143,0.002 -0.8078414,0.02891 -0.8062061,-0.444744 l 0.020887,-6.050328 c 0.00164,-0.47366 0.3688836,-0.854987 0.8270933,-0.854987 z" />
    <rect
       style="opacity:1;fill:#ac9393;fill-opacity:1;stroke:#000000;stroke-width:0.0398985;stroke-miterlimit:4;stroke-dasharray:none;stroke-opacity:1"
       id="metalplate-1"
       width="1.8539413"
       height="7.2945824"
       x="8.7015476"
       y="11.933619"
       ry="0.0016826894" />
    <path
       id="ironnail-8"
       style="opacity:0.674121;mix-blend-mode:normal;fill:#b3b3b3;fill-opacity:1;stroke:#000000;stroke-width:0.0398985;stroke-miterlimit:4;stroke-dasharray:none;stroke-opacity:1"
       d="m 15.290789,13.111405 a 0.77485724,0.12691968 0 0 0 -0.766678,0.12689 0.77485724,0.12691968 0 0 0 0.497544,0.118509 v 5.372375 c 0,0.0016 0.0011,0.0028 0.0024,0.0035 h -0.0015 l 0.264793,0.491622 0.264844,-0.493781 h -0.0019 c 2.1e-4,-4.98e-4 6e-4,-7.96e-4 6e-4,-0.0013 v -5.370831 a 0.77485724,0.12691968 0 0 0 0.522969,-0.120053 0.77485724,0.12691968 0 0 0 -0.774843,-0.12689 0.77485724,0.12691968 0 0 0 -0.0082,0 z" />
    <path
       id="redwire"
       d="M 9.1778311,12.48214 C 21.497396,5.2444197 28.348215,19.607515 28.348215,19.607515"
       style="fill:none;stroke:#ad0000;stroke-width:0.264583px;stroke-linecap:butt;stroke-linejoin:miter;stroke-opacity:1" />
    <path
       id="blackwire"
       d="m 16.063765,12.850593 c 13.796353,-0.613614 14.457811,6.804169 14.457811,6.804169"
       style="fill:none;stroke:#000000;stroke-width:0.264583px;stroke-linecap:butt;stroke-linejoin:miter;stroke-opacity:1" />
    <rect
       style="opacity:1;fill:#6c6753;fill-opacity:1;stroke:#000000;stroke-width:0.0498733;stroke-miterlimit:4;stroke-dasharray:none;stroke-opacity:1"
       id="clip2"
       width="0.33497185"
       height="1.4671481"
       x="-20.395634"
       y="-4.8645415"
       ry="0.0016845957"
       transform="matrix(-0.88346789,-0.46849172,0.47222417,-0.88147849,0,0)" />
    <rect
       transform="matrix(0.97653753,0.21534726,-0.33919066,0.94071765,0,0)"
       ry="0.0016536332"
       y="9.3615971"
       x="12.867032"
       height="1.4401823"
       width="0.30873117"
       id="clip1"
       style="opacity:1;fill:#918a6f;fill-opacity:1;stroke:#000000;stroke-width:0.0621097;stroke-miterlimit:4;stroke-dasharray:none;stroke-opacity:1" />
    <path
       d="m 27.206878,36.535611 a 2.5954106,1.03678 0 0 0 -2.411484,0.653544 c -0.01966,-0.0034 -0.0397,-0.0055 -0.06028,-0.0055 h -8.651368 c -0.205408,0 -0.370767,0.173395 -0.370767,0.388786 0,0.21539 0.165359,0.388786 0.370767,0.388786 h 8.651367 c 0.02058,0 0.04059,-0.0022 0.06024,-0.0055 a 2.5954106,1.03678 0 0 0 2.411569,0.653499 2.5954106,1.03678 0 0 0 2.59541,-1.036748 2.5954106,1.03678 0 0 0 -2.59541,-1.036792 2.5954106,1.03678 0 0 1 -4.3e-5,0 z"
       style="fill:#c8b7b7;stroke:#000000;stroke-width:0.0334832;stroke-miterlimit:4;stroke-dasharray:none;stroke-opacity:1"
       id="fancyspoon" />
    <path
       transform="matrix(0.10389037,0,0,0.11434104,16.063473,31.776828)"
       d="m 111.57969,52.150547 -1e-5,-2.3e-5 2e-5,0 z"
       id="path5335"
       style="fill:#00ffff;stroke-width:0.264583" />
    <path
       d="m 28.81361,37.637191 c -0.957926,0.301849 -2.056797,0.517505 -2.93514,-0.02775 0.421796,-0.482116 0.909136,-1.032962 1.330931,-1.515079 z"
       style="fill:#00ffff;stroke:#000000;stroke-width:0.0251125;stroke-miterlimit:4;stroke-dasharray:none;stroke-opacity:1"
       id="bluepowder" />
    <rect
       style="fill:#e3dbdb;stroke:#000000;stroke-width:0.0291063;stroke-miterlimit:4;stroke-dasharray:none;stroke-opacity:1"
       id="weighingmachine-7"
       width="13.001661"
       height="3.7713795"
       x="28.377842"
       y="60.22263"
       ry="0" />
    <rect
       style="fill:#536c53;stroke:#000000;stroke-width:0.0291063;stroke-miterlimit:4;stroke-dasharray:none;stroke-opacity:1"
       id="Display"
       width="7.6393943"
       height="1.3913828"
       x="31.5466"
       y="61.624977" />
    <rect
       style="fill:#000000;stroke-width:0.0256701"
       id="stand2-6"
       width="0.88146853"
       height="0.95199871"
       x="29.946344"
       y="64.533127" />
    <rect
       y="64.265862"
       x="38.192005"
       height="0.95199871"
       width="0.88146853"
       id="stand1"
       style="fill:#000000;stroke-width:0.0256701" />
    <rect
       style="opacity:0.43000004;fill:#aaeeff;stroke:#000000;stroke-width:0.0388083;stroke-miterlimit:4;stroke-dasharray:none;stroke-opacity:1"
       id="shield"
       width="10.467439"
       height="9.9959869"
       x="29.506229"
       y="49.995987"
       onclick="Heyy" />
    <path
       id="dish"
       style="opacity:1;fill:#c8b7b7;stroke:#000000;stroke-width:0.0291063;stroke-miterlimit:4;stroke-dasharray:none;stroke-opacity:1"
       d="m 31.523243,59.111892 6.669944,0.008 -0.496195,0.71908 h -5.615523 z" />
    <path
       style="opacity:1;fill:#00ffff;stroke:#000000;stroke-width:0.0291062;stroke-miterlimit:4;stroke-dasharray:none;stroke-opacity:1"
       id="heap2"
       d="m 36.231635,58.558273 1.503747,0.581985 -2.886889,0.0131 z" />
    <path
       d="m 34.860259,58.548789 1.503747,0.581985 -2.88689,0.0131 z"
       id="heap1"
       style="opacity:1;fill:#00ffff;stroke:#000000;stroke-width:0.0291062;stroke-miterlimit:4;stroke-dasharray:none;stroke-opacity:1" />
    <rect
       style="opacity:0.91600001;fill:#000000;stroke-width:0.26458332"
       id="rect1568"
       width="141.72032"
       height="1.7076105"
       x="66.982574"
       y="83.896866" />
    <rect
       style="opacity:0.91600001;fill:#000000;stroke-width:0.26458332"
       id="rect1570"
       width="6.6953902"
       height="10.196945"
       x="92.795967"
       y="99.006187" />
    <rect
       style="opacity:0.91600001;fill:#000000;stroke-width:0.26458332"
       id="rect1572"
       width="6.6954789"
       height="9.9174585"
       x="169.22369"
       y="99.006187" />
    <rect
       style="opacity:0.91600001;fill:#4d4d4d;stroke-width:0.26458332"
       id="rect1574"
       width="18"
       height="7"
       x="84.159607"
       y="87.246269" />
    <rect
       style="opacity:0.91600001;fill:#4d4d4d;stroke-width:0.26458332"
       id="rect1576"
       width="18"
       height="7"
       x="126.41849"
       y="87.460686" />
    <rect
       style="opacity:0.91600001;fill:#4d4d4d;stroke-width:0.26458332"
       id="rect1578"
       width="18"
       height="7"
       x="167.57799"
       y="86.926147" />
    <ellipse
       style="opacity:0.91600001;fill:#000000;stroke-width:0.26458332"
       id="path1584"
       cx="176.79878"
       cy="90.40065"
       rx="1.4699824"
       ry="1.3363476" />
    <ellipse
       ry="1.3363476"
       rx="1.4699824"
       cy="90.667923"
       cx="135.10474"
       id="ellipse1586"
       style="opacity:0.91600001;fill:#000000;stroke-width:0.26458332" />
    <ellipse
       style="opacity:0.91600001;fill:#000000;stroke-width:0.26458332"
       id="ellipse1588"
       cx="93.410698"
       cy="90.133385"
       rx="1.4699824"
       ry="1.3363476" />
  </g>
</svg>
