<?xml version="1.0" encoding="UTF-8" standalone="no"?>
<!-- Created with Inkscape (http://www.inkscape.org/) -->

<svg
   xmlns:dc="http://purl.org/dc/elements/1.1/"
   xmlns:cc="http://creativecommons.org/ns#"
   xmlns:rdf="http://www.w3.org/1999/02/22-rdf-syntax-ns#"
   xmlns:svg="http://www.w3.org/2000/svg"
   xmlns="http://www.w3.org/2000/svg"
   xmlns:sodipodi="http://sodipodi.sourceforge.net/DTD/sodipodi-0.dtd"
   xmlns:inkscape="http://www.inkscape.org/namespaces/inkscape"
   width="793.70081"
   height="1122.5197"
   viewBox="0 0 210 297"
   version="1.1"
   id="svg8"
   inkscape:version="0.92.3 (2405546, 2018-03-11)"
   sodipodi:docname="roundBottomFlask.svg">
  <defs
     id="defs2" />
  <sodipodi:namedview
     id="base"
     pagecolor="#ffffff"
     bordercolor="#666666"
     borderopacity="1.0"
     inkscape:pageopacity="0.0"
     inkscape:pageshadow="2"
     inkscape:zoom="0.35"
     inkscape:cx="100"
     inkscape:cy="808.85455"
     inkscape:document-units="px"
     inkscape:current-layer="layer4"
     showgrid="false"
     showborder="false"
     units="px"
     inkscape:object-nodes="false"
     inkscape:snap-nodes="false"
     inkscape:snap-others="false"
     inkscape:snap-bbox="true"
     inkscape:window-width="1366"
     inkscape:window-height="716"
     inkscape:window-x="-8"
     inkscape:window-y="-8"
     inkscape:window-maximized="1" />
  <metadata
     id="metadata5">
    <rdf:RDF>
      <cc:Work
         rdf:about="">
        <dc:format>image/svg+xml</dc:format>
        <dc:type
           rdf:resource="http://purl.org/dc/dcmitype/StillImage" />
        <dc:title></dc:title>
      </cc:Work>
    </rdf:RDF>
  </metadata>
  <g
     inkscape:label="Layer 1"
     inkscape:groupmode="layer"
     id="layer1"
     style="display:inline">
    <path
       inkscape:connector-curvature="0"
       id="path1463"
       d="m 192.76786,142.02975 a 74.839287,74.839287 0 0 1 -74.83929,74.83929 74.839287,74.839287 0 0 1 -74.83929,-74.83929 74.839287,74.839287 0 0 1 74.83929,-74.839282 74.839287,74.839287 0 0 1 74.83929,74.839282 z"
       style="fill:#333333;stroke-width:0.26458332" />
    <rect
       style="fill:#333333;stroke-width:0.26458332"
       y="-21.25596"
       x="92.226196"
       height="104.32143"
       width="48.380955"
       id="rect1465" />
    <path
       style="fill:#333333;stroke-width:0.99999994"
       d="M 348.57227,-80.337891 V 271.39258 A 282.85715,282.85715 0 0 0 162.85742,536.80469 282.85715,282.85715 0 0 0 445.71484,819.66211 282.85715,282.85715 0 0 0 728.57227,536.80469 282.85715,282.85715 0 0 0 531.42773,267.35742 V -80.337891 Z"
       transform="scale(0.26458333)"
       id="path14"
       inkscape:connector-curvature="0" />
    <path
       style="fill:#00ffff;stroke-width:0.24854796"
       d="m 47.67882,143.54162 a 70.303572,70.303572 0 0 0 70.24997,68.79167 70.303572,70.303572 0 0 0 70.22775,-68.79167 z"
       id="path19"
       inkscape:connector-curvature="0" />
    <path
       style="fill:#ffffff;stroke-width:0.22449495"
       d="m 117.92879,78.529573 a 63.500002,63.500002 0 0 0 -9.75238,0.797883 63.500002,63.500002 0 0 1 62.66905,63.458144 63.500002,63.500002 0 0 1 -53.74814,62.70211 63.500002,63.500002 0 0 0 0.83147,0.0419 63.500002,63.500002 0 0 0 63.5,-63.5 63.500002,63.500002 0 0 0 -63.5,-63.499997 z"
       id="path21"
       inkscape:connector-curvature="0" />
  </g>
  <g
     inkscape:groupmode="layer"
     id="layer4"
     inkscape:label="ReflectRoundFlask" />
  <g
     inkscape:groupmode="layer"
     id="layer3"
     inkscape:label="liqInRoundFlask" />
  <g
     inkscape:groupmode="layer"
     id="layer2"
     inkscape:label="round flask"
     style="display:inline" />
</svg>
