<?xml version="1.0" encoding="UTF-8" standalone="no"?>
<svg
   xmlns:dc="http://purl.org/dc/elements/1.1/"
   xmlns:cc="http://creativecommons.org/ns#"
   xmlns:rdf="http://www.w3.org/1999/02/22-rdf-syntax-ns#"
   xmlns:svg="http://www.w3.org/2000/svg"
   xmlns="http://www.w3.org/2000/svg"
   id="svg8"
   version="1.1"
   viewBox="0 0 210 297"
   height="1122.5197"
   width="793.70081">
  <defs
     id="defs2" />
  <metadata
     id="metadata5">
    <rdf:RDF>
      <cc:Work
         rdf:about="">
        <dc:format>image/svg+xml</dc:format>
        <dc:type
           rdf:resource="http://purl.org/dc/dcmitype/StillImage" />
        <dc:title></dc:title>
      </cc:Work>
    </rdf:RDF>
  </metadata>
  <g
     style="display:inline"
     id="layer1">
    <path
       style="fill:#333333;stroke-width:0.26458332"
       d="m 192.76786,142.02975 a 74.839287,74.839287 0 0 1 -74.83929,74.83929 74.839287,74.839287 0 0 1 -74.83929,-74.83929 74.839287,74.839287 0 0 1 74.83929,-74.839282 74.839287,74.839287 0 0 1 74.83929,74.839282 z"
       id="path1463" />
    <rect
       id="rect1465"
       width="48.380955"
       height="104.32143"
       x="92.226196"
       y="-21.25596"
       style="fill:#333333;stroke-width:0.26458332" />
    <path
       id="path14"
       transform="scale(0.26458333)"
       d="M 348.57227,-80.337891 V 271.39258 A 282.85715,282.85715 0 0 0 162.85742,536.80469 282.85715,282.85715 0 0 0 445.71484,819.66211 282.85715,282.85715 0 0 0 728.57227,536.80469 282.85715,282.85715 0 0 0 531.42773,267.35742 V -80.337891 Z"
       style="fill:#333333;stroke-width:0.99999994" />
    <path
       id="path19"
       d="m 47.67882,143.54162 a 70.303572,70.303572 0 0 0 70.24997,68.79167 70.303572,70.303572 0 0 0 70.22775,-68.79167 z"
       style="fill:#00ffff;stroke-width:0.24854796" />
    <path
       id="path21"
       d="m 117.92879,78.529573 a 63.500002,63.500002 0 0 0 -9.75238,0.797883 63.500002,63.500002 0 0 1 62.66905,63.458144 63.500002,63.500002 0 0 1 -53.74814,62.70211 63.500002,63.500002 0 0 0 0.83147,0.0419 63.500002,63.500002 0 0 0 63.5,-63.5 63.500002,63.500002 0 0 0 -63.5,-63.499997 z"
       style="fill:#ffffff;stroke-width:0.22449495" />
  </g>
  <g
     id="layer4" />
  <g
     id="layer3" />
  <g
     style="display:inline"
     id="layer2" />
</svg>
