<?xml version="1.0" encoding="UTF-8" standalone="no"?>
<svg
   xmlns:dc="http://purl.org/dc/elements/1.1/"
   xmlns:cc="http://creativecommons.org/ns#"
   xmlns:rdf="http://www.w3.org/1999/02/22-rdf-syntax-ns#"
   xmlns:svg="http://www.w3.org/2000/svg"
   xmlns="http://www.w3.org/2000/svg"
   xmlns:sodipodi="http://sodipodi.sourceforge.net/DTD/sodipodi-0.dtd"
   xmlns:inkscape="http://www.inkscape.org/namespaces/inkscape"
   width="210mm"
   height="297mm"
   viewBox="0 0 210 297"
   version="1.1"
   id="svg8"
   inkscape:version="1.0 (4035a4fb49, 2020-05-01)"
   sodipodi:docname="shelf.svg">
  <defs
     id="defs2" />
  <sodipodi:namedview
     id="base"
     pagecolor="#ffffff"
     bordercolor="#666666"
     borderopacity="1.0"
     inkscape:pageopacity="0.0"
     inkscape:pageshadow="2"
     inkscape:zoom="0.35"
     inkscape:cx="-116.77044"
     inkscape:cy="574.6066"
     inkscape:document-units="mm"
     inkscape:current-layer="layer1"
     inkscape:document-rotation="0"
     showgrid="false"
     showguides="false"
     inkscape:window-width="1920"
     inkscape:window-height="986"
     inkscape:window-x="-11"
     inkscape:window-y="-11"
     inkscape:window-maximized="1" />
  <metadata
     id="metadata5">
    <rdf:RDF>
      <cc:Work
         rdf:about="">
        <dc:format>image/svg+xml</dc:format>
        <dc:type
           rdf:resource="http://purl.org/dc/dcmitype/StillImage" />
        <dc:title />
      </cc:Work>
    </rdf:RDF>
  </metadata>
  <g
     inkscape:label="Layer 1"
     inkscape:groupmode="layer"
     id="layer1">
    <rect
       style="opacity:0.5623;fill:#a05a2c;stroke:#000000;stroke-width:0.7;stroke-miterlimit:4;stroke-dasharray:none"
       id="shelf"
       width="182.2778"
       height="271.01129"
       x="16.349297"
       y="22.969444" />
    <rect
       style="opacity:0.690096;fill:#a05a2c;stroke:#000000;stroke-width:0.3;stroke-miterlimit:4;stroke-dasharray:none"
       id="wood1"
       width="167.84526"
       height="5.3453903"
       x="23.298304"
       y="81.768738" />
    <rect
       style="opacity:0.690096;fill:#a05a2c;stroke:#000000;stroke-width:0.3"
       id="wood2"
       width="164.10349"
       height="4.8108511"
       x="27.040077"
       y="143.24074" />
    <rect
       style="opacity:0.690096;fill:#a05a2c;stroke:#000000;stroke-width:0.3"
       id="wood3"
       width="155.55086"
       height="4.2763124"
       x="31.316389"
       y="207.38542" />
    <rect
       style="opacity:0.690096;fill:#a05a2c;stroke:#000000;stroke-width:0.3"
       id="wood5"
       width="156.61995"
       height="3.7417734"
       x="30.247313"
       y="269.92648" />
    <path
       sodipodi:nodetypes="ccccccccc"
       id="beaker"
       style="opacity:0.396166;mix-blend-mode:normal;fill:#00ffff;fill-rule:evenodd;stroke:#000000;stroke-width:0.3;stroke-miterlimit:4;stroke-dasharray:none;stroke-opacity:1"
       d="M 37.196319,57.183508 V 81.76874 H 56.476637 V 61.798815 l 2.816156,-4.428037 -2.816156,-0.07125 2.816156,0.07125 -7.401148,-0.18727 z" />
    <rect
       ry="0.0080255428"
       y="101.25627"
       x="40.113155"
       height="34.791321"
       width="9.6679688"
       id="metalplate"
       style="opacity:0.811502;fill:#ac9393;stroke:#000000;stroke-width:0.3;stroke-miterlimit:4;stroke-dasharray:none;stroke-opacity:1" />
       
    <path
       id="box"
       style="fill:#e3dbdb;stroke-width:0.0405661"
       d="m 75.873564,65.622727 28.234936,0.05983 c 1.26494,0.0027 2.29743,1.156715 2.31501,2.587521 l 0.1291,10.512346 c 0.0176,1.430805 -0.98662,2.580519 -2.25156,2.577841 l -28.234936,-0.05983 c -1.26495,-0.0026 -2.29744,-1.156714 -2.31501,-2.587519 l -0.12911,-10.512344 c -0.0176,-1.430807 0.98663,-2.580526 2.25157,-2.577845 z" />
    <rect
       ry="0.048313916"
       y="60.261116"
       x="73.590279"
       height="5.3567772"
       width="33.050823"
       id="lid"
       style="fill:#483737;stroke-width:0.0764402" />
    <path
       id="Sticker"
       style="fill:#ffffff;stroke-width:0.0719498"
       d="m 81.028064,71.757438 h 18.458214 v 4.372881 H 81.028064 Z" />
    <text
       xml:space="preserve"
       style="font-style:normal;font-weight:normal;font-size:2.46944px;line-height:1.25;font-family:sans-serif;fill:#000000;fill-opacity:1;stroke:none;stroke-width:0.264583"
       x="82.272713"
       y="74.717117"
       id="CuSO4"><tspan
         sodipodi:role="line"
         id="tspan867"
         x="82.272713"
         y="74.717117"
         style="font-size:2.46944px;stroke-width:0.264583">CuSO4.5H2O</tspan></text>
    <path
       id="rect5329"
       style="fill:#c8b7b7;stroke:#000000;stroke-width:0.285839;stroke-miterlimit:4;stroke-dasharray:none;stroke-opacity:1"
       d="m 91.373592,128.06183 a 6.1310744,3.5142131 0 0 0 -5.696589,2.21521 c -0.04643,-0.0113 -0.09376,-0.0188 -0.142398,-0.0188 H 65.097693 c -0.485232,0 -0.875854,0.58772 -0.875854,1.31781 0,0.73007 0.390622,1.31781 0.875854,1.31781 h 20.436912 c 0.0486,0 0.0959,-0.008 0.142301,-0.0188 a 6.1310744,3.5142131 0 0 0 5.696789,2.21506 6.1310744,3.5142131 0 0 0 6.131074,-3.5141 6.1310744,3.5142131 0 0 0 -6.131074,-3.51426 6.1310744,3.5142131 0 0 1 -1.03e-4,0 z" />
    <path
       d="m 127.10769,58.964288 h 24.73105 c 0.007,0 0.0132,0.006 0.0132,0.0132 v 21.89623 c 0,0.007 -0.006,0.0132 -0.0132,0.0132 h -24.73105 c -0.007,0 -0.0132,-0.006 -0.0132,-0.0132 v -21.89623 c 0,-0.007 0.006,-0.0132 0.0132,-0.0132 z"
       style="opacity:0.853035;fill:#917c6f;fill-opacity:1;stroke:#000000;stroke-width:0.499999;stroke-miterlimit:4;stroke-dasharray:none;stroke-opacity:1"
       id="Battery" />
    <circle
       style="opacity:0.853035;fill:#000000;fill-opacity:1;stroke:#000000;stroke-width:0.3;stroke-miterlimit:4;stroke-dasharray:none"
       id="positiveterminal"
       cx="132.71689"
       cy="75.264503"
       r="1.4646577" />
    <ellipse
       style="opacity:0.853035;fill:#000000;fill-opacity:1;stroke:#000000;stroke-width:0.3;stroke-miterlimit:4;stroke-dasharray:none"
       id="negativeterminal"
       cx="138.76451"
       cy="75.217262"
       rx="1.4646577"
       ry="1.4174107" />
    <text
       xml:space="preserve"
       style="font-style:normal;font-weight:normal;font-size:7.05556px;line-height:1.25;font-family:sans-serif;fill:#000000;fill-opacity:1;stroke:none;stroke-width:0.264583"
       x="128.79539"
       y="72.004463"
       id="plusminus"><tspan
         sodipodi:role="line"
         id="tspan887"
         x="128.79539"
         y="72.004463"
         style="font-size:7.05556px;stroke-width:0.264583">+ -</tspan></text>
    <rect
       ry="0.78673983"
       y="89.487305"
       x="123.9027"
       height="52.449326"
       width="3.519671"
       id="glassrod"
       style="opacity:0.654952;fill:#80e5ff;stroke:#000000;stroke-width:0.4;stroke-miterlimit:4;stroke-dasharray:none;stroke-opacity:1" />
    <path
       d="m 159.28124,111.25608 a 5.439344,0.560334 0 0 0 -5.38192,0.56021 5.439344,0.560334 0 0 0 3.49266,0.52321 v 23.71834 c 0,0.007 0.008,0.0123 0.0171,0.0154 h -0.0109 l 1.85878,2.17045 1.85916,-2.17999 h -0.0134 c 0.001,-0.002 0.004,-0.004 0.004,-0.006 v -23.7114 a 5.439344,0.560334 0 0 0 3.67114,-0.53001 5.439344,0.560334 0 0 0 -5.43924,-0.56021 5.439344,0.560334 0 0 0 -0.0573,0 z"
       style="opacity:0.674121;mix-blend-mode:normal;fill:#b3b3b3;fill-opacity:1;stroke:#000000;stroke-width:0.4;stroke-miterlimit:4;stroke-dasharray:none;stroke-opacity:1"
       id="ironnail" />
    <path
       d="m 37.082425,191.97448 21.256928,-18.00994 c 0.0038,-0.004 0.01001,-0.004 0.01383,-0.002 l 23.955197,13.27304 c 0.0038,0.002 0.0039,0.006 6e-6,0.01 l -21.256911,18.00993 c -0.0038,0.004 -0.01001,0.004 -0.01384,0.002 L 37.082456,191.98423 c -0.0039,-0.002 -0.0039,-0.006 -3.5e-5,-0.01 z"
       style="opacity:0.674121;mix-blend-mode:normal;fill:#aa8800;fill-opacity:1;stroke:#000000;stroke-width:0.118633;stroke-miterlimit:4;stroke-dasharray:none;stroke-opacity:1"
       id="sandpaper"
       inkscape:transform-center-x="0.48365869"
       inkscape:transform-center-y="-17.349476" />
    <rect
       ry="0"
       y="252.20494"
       x="82.62645"
       height="14.258862"
       width="44.197693"
       id="weighingmachine"
       style="fill:#e3dbdb;stroke:#000000;stroke-width:0.104347;stroke-miterlimit:4;stroke-dasharray:none;stroke-opacity:1" />
    <rect
       y="256.49646"
       x="92.489777"
       height="5.2605519"
       width="25.969267"
       id="Display-1"
       style="fill:#536c53;stroke:#000000;stroke-width:0.104347;stroke-miterlimit:4;stroke-dasharray:none;stroke-opacity:1" />
    <rect
       y="266.48114"
       x="85.23275"
       height="3.5993249"
       width="2.9964538"
       id="stand2"
       style="fill:#000000;stroke-width:0.0920277" />
    <rect
       style="fill:#000000;stroke-width:0.0920277"
       id="stand1-1"
       width="2.9964538"
       height="3.5993249"
       x="121.43989"
       y="266.48114" />
    <rect
       onclick="Heyy"
       y="214.55046"
       x="87.370834"
       height="37.792912"
       width="35.58289"
       id="shield-6"
       style="opacity:0.43;fill:#aaeeff;stroke:#000000;stroke-width:0.139129;stroke-miterlimit:4;stroke-dasharray:none;stroke-opacity:1" />
    <path
       sodipodi:nodetypes="ccccc"
       d="m 93.318901,250.02644 22.673709,0.0304 -1.68674,2.7187 H 95.216517 Z"
       style="opacity:1;fill:#c8b7b7;stroke:#000000;stroke-width:0.104347;stroke-miterlimit:4;stroke-dasharray:none;stroke-opacity:1"
       id="dish-6" />
    <path
       transform="matrix(0.31000393,0.00558542,-0.01983386,0.08112902,76.602548,228.10265)"
       inkscape:transform-center-y="-0.35847995"
       d="m 88.733488,126.95304 18.144852,25.87272 -31.478856,2.77754 z"
       inkscape:randomized="0"
       inkscape:rounded="0"
       inkscape:flatsided="true"
       sodipodi:arg2="-0.61160615"
       sodipodi:arg1="-1.6588037"
       sodipodi:r2="9.1224689"
       sodipodi:r1="18.244938"
       sodipodi:cy="145.12737"
       sodipodi:cx="90.337105"
       sodipodi:sides="3"
       id="heap2-6"
       style="display:none;opacity:1;fill:#00ffff;stroke:#000000;stroke-width:0.656527;stroke-miterlimit:4;stroke-dasharray:none;stroke-opacity:1"
       sodipodi:type="star"
       inkscape:transform-center-x="-0.068333221" />
    <path
       sodipodi:type="star"
       style="display:none;opacity:1;fill:#00ffff;stroke:#000000;stroke-width:0.656527;stroke-miterlimit:4;stroke-dasharray:none;stroke-opacity:1"
       id="heap1-5"
       sodipodi:sides="3"
       sodipodi:cx="90.337105"
       sodipodi:cy="145.12737"
       sodipodi:r1="18.244938"
       sodipodi:r2="9.1224689"
       sodipodi:arg1="-1.6588037"
       sodipodi:arg2="-0.61160615"
       inkscape:flatsided="true"
       inkscape:rounded="0"
       inkscape:randomized="0"
       d="m 88.733488,126.95304 18.144852,25.87272 -31.478856,2.77754 z"
       inkscape:transform-center-y="-0.35847475"
       transform="matrix(0.31000393,0.00558542,-0.01983386,0.08112902,83.753534,228.00477)"
       inkscape:transform-center-x="-0.068326698" />
    <path
       id="TT5"
       style="opacity:0.389776;fill:#00ffff;fill-opacity:1;stroke:#000000;stroke-width:0.112032;stroke-miterlimit:4;stroke-dasharray:none"
       d="m 43.370764,262.17808 c -1.795628,-0.007 -3.722538,-2.13099 -3.690972,-3.23394 l 0.102292,-23.47951 7.049371,0.1224 -0.102296,23.29051 c -0.0048,1.10339 -1.562768,3.30826 -3.358395,3.30054 z"
       sodipodi:nodetypes="ssccss" />
    <path
       sodipodi:nodetypes="ssccss"
       d="m 168.45291,201.77516 c -1.79563,-0.007 -3.72254,-2.13099 -3.69098,-3.23394 l 0.1023,-23.4795 7.04937,0.12239 -0.1023,23.29051 c -0.005,1.10339 -1.56277,3.30826 -3.35839,3.30054 z"
       style="opacity:0.389776;fill:#00ffff;fill-opacity:1;stroke:#000000;stroke-width:0.112032;stroke-miterlimit:4;stroke-dasharray:none"
       id="TT4" />
    <path
       id="TT3"
       style="opacity:0.389776;fill:#00ffff;fill-opacity:1;stroke:#000000;stroke-width:0.112032;stroke-miterlimit:4;stroke-dasharray:none"
       d="m 148.67496,201.77516 c -1.79563,-0.007 -3.72254,-2.13099 -3.69097,-3.23394 l 0.10229,-23.4795 7.04937,0.12239 -0.10229,23.29051 c -0.005,1.10339 -1.56277,3.30826 -3.3584,3.30054 z"
       sodipodi:nodetypes="ssccss" />
    <path
       sodipodi:nodetypes="ssccss"
       d="m 108.58453,202.84424 c -1.79563,-0.007 -3.72254,-2.13099 -3.69097,-3.23394 l 0.10229,-23.47951 7.04937,0.12239 -0.1023,23.29052 c -0.005,1.10339 -1.56276,3.30826 -3.35839,3.30054 z"
       style="opacity:0.389776;fill:#00ffff;fill-opacity:1;stroke:#000000;stroke-width:0.112032;stroke-miterlimit:4;stroke-dasharray:none"
       id="TT1" />
    <path
       id="TT2"
       style="opacity:0.389776;fill:#00ffff;fill-opacity:1;stroke:#000000;stroke-width:0.112032;stroke-miterlimit:4;stroke-dasharray:none"
       d="m 128.46284,202.96663 c -1.79563,-0.007 -3.72254,-2.13099 -3.69097,-3.23394 l 0.10229,-23.47951 7.04937,0.1224 -0.10229,23.29051 c -0.005,1.10339 -1.56277,3.30826 -3.3584,3.30054 z"
       sodipodi:nodetypes="ssccss" />
    <path
       sodipodi:nodetypes="ssccss"
       d="m 64.752326,263.7817 c -1.795628,-0.007 -3.722538,-2.13099 -3.690972,-3.23394 l 0.102292,-23.47951 7.049371,0.1224 -0.102296,23.29051 c -0.0048,1.10339 -1.562768,3.30826 -3.358395,3.30054 z"
       style="opacity:0.389776;fill:#00ffff;fill-opacity:1;stroke:#000000;stroke-width:0.112032;stroke-miterlimit:4;stroke-dasharray:none"
       id="TT6" />
    <path
       id="box-8-8"
       style="fill:#e3dbdb;stroke-width:0.0386376"
       d="m 133.67609,243.40695 15.81454,0.0969 c 0.7085,0.005 1.2868,1.87349 1.29665,4.1909 l 0.0723,17.02636 c 0.01,2.31742 -0.55261,4.17955 -1.26111,4.17521 l -15.81454,-0.0969 c -0.70851,-0.005 -1.28681,-1.87347 -1.29665,-4.19089 l -0.0723,-17.02635 c -0.01,-2.31742 0.55262,-4.17957 1.26112,-4.17523 z" />
    <rect
       ry="0.078251831"
       y="234.72304"
       x="132.39722"
       height="8.6761274"
       width="18.511948"
       id="lid-2-3"
       style="fill:#483737;stroke-width:0.0728061" />
    <path
       id="Sticker-2-1"
       style="fill:#ffffff;stroke-width:0.0685291"
       d="m 136.56316,253.34308 h 10.33854 v 7.08255 h -10.33854 z" />
    <path
       d="m 162.49016,243.89638 15.81454,0.0969 c 0.7085,0.005 1.2868,1.87349 1.29665,4.1909 l 0.0723,17.02636 c 0.01,2.31742 -0.55261,4.17955 -1.26111,4.17521 l -15.81454,-0.0969 c -0.70851,-0.005 -1.28681,-1.87347 -1.29665,-4.19089 l -0.0723,-17.02635 c -0.01,-2.31742 0.55262,-4.17957 1.26112,-4.17523 z"
       style="fill:#e3dbdb;stroke-width:0.0386376"
       id="box-8-8-2" />
    <rect
       style="fill:#483737;stroke-width:0.0728062"
       id="lid-2-3-6"
       width="18.511948"
       height="8.6761274"
       x="161.21129"
       y="235.21246"
       ry="0.078251839" />
    <path
       d="m 165.37723,253.83251 h 10.33854 v 7.08255 h -10.33854 z"
       style="fill:#ffffff;stroke-width:0.0685292"
       id="Sticker-2-1-2" />
    <text
       xml:space="preserve"
       style="font-style:normal;font-weight:normal;font-size:5.29167px;line-height:1.25;font-family:sans-serif;fill:#000000;fill-opacity:1;stroke:none;stroke-width:0.264583"
       x="136.44942"
       y="258.7247"
       id="HCL"><tspan
         sodipodi:role="line"
         id="tspan1038"
         x="136.44942"
         y="258.7247"
         style="font-size:5.29167px;stroke-width:0.264583">HCL</tspan></text>
    <text
       xml:space="preserve"
       style="font-style:normal;font-weight:normal;font-size:3.07558px;line-height:1.25;font-family:sans-serif;fill:#000000;fill-opacity:1;stroke:none;stroke-width:0.230668"
       x="190.20644"
       y="225.89015"
       id="H2SO4"
       transform="scale(0.87181715,1.1470295)"><tspan
         sodipodi:role="line"
         id="tspan1042"
         x="190.20644"
         y="225.89015"
         style="font-size:3.07558px;stroke-width:0.230668">H2SO4</tspan></text>
    <path
       id="TT4-8"
       style="opacity:0.389776;fill:#00ffff;fill-opacity:1;stroke:#000000;stroke-width:0.112032;stroke-miterlimit:4;stroke-dasharray:none"
       d="m 180.78785,139.60125 c -1.79563,-0.007 -3.72254,-2.13099 -3.69098,-3.23394 l 0.1023,-23.4795 7.04937,0.12239 -0.1023,23.29051 c -0.005,1.10339 -1.56277,3.30826 -3.35839,3.30054 z"
       sodipodi:nodetypes="ssccss"
       inkscape:transform-center-x="-13.985005"
       inkscape:transform-center-y="-1.1334403" />
  </g>
</svg>
