<?xml version="1.0" encoding="UTF-8" standalone="no"?>
<svg
   xmlns:dc="http://purl.org/dc/elements/1.1/"
   xmlns:cc="http://creativecommons.org/ns#"
   xmlns:rdf="http://www.w3.org/1999/02/22-rdf-syntax-ns#"
   xmlns:svg="http://www.w3.org/2000/svg"
   xmlns="http://www.w3.org/2000/svg"
   xmlns:sodipodi="http://sodipodi.sourceforge.net/DTD/sodipodi-0.dtd"
   xmlns:inkscape="http://www.inkscape.org/namespaces/inkscape"
   sodipodi:docname="shelf.svg"
   inkscape:version="1.0 (4035a4fb49, 2020-05-01)"
   id="svg8"
   version="1.1"
   viewBox="0 0 210 297"
   height="297mm"
   width="210mm">
  <defs
     id="defs2" />
  <sodipodi:namedview
     inkscape:window-maximized="1"
     inkscape:window-y="-11"
     inkscape:window-x="-11"
     inkscape:window-height="986"
     inkscape:window-width="1920"
     showguides="false"
     showgrid="false"
     inkscape:document-rotation="0"
     inkscape:current-layer="layer1"
     inkscape:document-units="mm"
     inkscape:cy="574.6066"
     inkscape:cx="-116.77044"
     inkscape:zoom="0.35"
     inkscape:pageshadow="2"
     inkscape:pageopacity="0.0"
     borderopacity="1.0"
     bordercolor="#666666"
     pagecolor="#ffffff"
     id="base" />
  <metadata
     id="metadata5">
    <rdf:RDF>
      <cc:Work
         rdf:about="">
        <dc:format>image/svg+xml</dc:format>
        <dc:type
           rdf:resource="http://purl.org/dc/dcmitype/StillImage" />
        <dc:title></dc:title>
      </cc:Work>
    </rdf:RDF>
  </metadata>
  <g
     id="layer1"
     inkscape:groupmode="layer"
     inkscape:label="Layer 1">
    <rect
       y="13.898015"
       x="17.105249"
       height="271.01129"
       width="182.2778"
       id="shelf"
       style="fill:#a05a2c;stroke:#000000;stroke-width:0.7;opacity:0.56230032;stroke-miterlimit:4;stroke-dasharray:none" />
    <rect
       y="72.697311"
       x="24.054256"
       height="5.3453903"
       width="167.84526"
       id="wood1"
       style="opacity:0.69009585;fill:#a05a2c;stroke:#000000;stroke-width:0.3;stroke-miterlimit:4;stroke-dasharray:none" />
    <rect
       y="134.16931"
       x="27.79603"
       height="4.8108511"
       width="164.10349"
       id="wood2"
       style="opacity:0.690096;fill:#a05a2c;stroke:#000000;stroke-width:0.3" />
    <rect
       y="198.314"
       x="32.072342"
       height="4.2763124"
       width="155.55086"
       id="wood3"
       style="opacity:0.690096;fill:#a05a2c;stroke:#000000;stroke-width:0.3" />
    <rect
       y="260.85504"
       x="31.003265"
       height="3.7417734"
       width="156.61995"
       id="wood5"
       style="opacity:0.690096;fill:#a05a2c;stroke:#000000;stroke-width:0.3" />
    <path
       d="M 37.952271,48.112079 V 72.697311 H 57.232589 V 52.727386 l 2.816156,-4.428037 -2.816156,-0.07125 2.816156,0.07125 -7.401148,-0.18727 z"
       style="opacity:0.396166;mix-blend-mode:normal;fill:#00ffff;fill-rule:evenodd;stroke:#000000;stroke-width:0.3;stroke-miterlimit:4;stroke-dasharray:none;stroke-opacity:1"
       id="beaker"
       sodipodi:nodetypes="ccccccccc" />
    <rect
       style="opacity:0.811502;fill:#ac9393;stroke:#000000;stroke-width:0.3;stroke-miterlimit:4;stroke-dasharray:none;stroke-opacity:1"
       id="metalplate"
       width="9.6679688"
       height="34.791321"
       x="40.869106"
       y="92.184845"
       ry="0.0080255428" />
    <path
       d="m 76.629516,56.551298 28.234934,0.05983 c 1.26494,0.0027 2.29743,1.156715 2.31501,2.587521 l 0.1291,10.512346 c 0.0176,1.430805 -0.98662,2.580519 -2.25156,2.577841 l -28.234934,-0.05983 c -1.26495,-0.0026 -2.29744,-1.156714 -2.31501,-2.587519 l -0.12911,-10.512344 c -0.0176,-1.430807 0.98663,-2.580526 2.25157,-2.577845 z"
       style="fill:#e3dbdb;stroke-width:0.0405661"
       id="box" />
    <rect
       style="fill:#483737;stroke-width:0.0764402"
       id="lid"
       width="33.050823"
       height="5.3567772"
       x="74.34623"
       y="51.189686"
       ry="0.048313916" />
    <path
       d="M 81.784016,62.686009 H 100.24223 V 67.05889 H 81.784016 Z"
       style="fill:#ffffff;stroke-width:0.0719498"
       id="Sticker" />
    <text
       id="CuSO4"
       y="65.645691"
       x="83.028664"
       style="font-style:normal;font-weight:normal;font-size:2.46944px;line-height:1.25;font-family:sans-serif;fill:#000000;fill-opacity:1;stroke:none;stroke-width:0.264583"
       xml:space="preserve"><tspan
         style="font-size:2.46944px;stroke-width:0.264583"
         y="65.645691"
         x="83.028664"
         id="tspan867"
         sodipodi:role="line">CuSO4.5H2O</tspan></text>
    <path
       d="m 92.129544,118.9904 a 6.1310744,3.5142131 0 0 0 -5.696589,2.21521 c -0.04643,-0.0113 -0.09376,-0.0188 -0.142398,-0.0188 H 65.853645 c -0.485232,0 -0.875854,0.58772 -0.875854,1.31781 0,0.73007 0.390622,1.31781 0.875854,1.31781 h 20.436912 c 0.0486,0 0.0959,-0.008 0.142301,-0.0188 a 6.1310744,3.5142131 0 0 0 5.696789,2.21506 6.1310744,3.5142131 0 0 0 6.131074,-3.5141 6.1310744,3.5142131 0 0 0 -6.131074,-3.51426 6.1310744,3.5142131 0 0 1 -1.03e-4,0 z"
       style="fill:#c8b7b7;stroke:#000000;stroke-width:0.285839;stroke-miterlimit:4;stroke-dasharray:none;stroke-opacity:1"
       id="rect5329" />
    <path
       id="Battery"
       style="opacity:0.85303514;fill:#917c6f;fill-opacity:1;stroke:#000000;stroke-width:0.499999;stroke-miterlimit:4;stroke-dasharray:none;stroke-opacity:1"
       d="m 127.86364,49.892859 h 24.73105 c 0.007,0 0.0132,0.006 0.0132,0.0132 v 21.89623 c 0,0.007 -0.006,0.0132 -0.0132,0.0132 h -24.73105 c -0.007,0 -0.0132,-0.006 -0.0132,-0.0132 v -21.89623 c 0,-0.007 0.006,-0.0132 0.0132,-0.0132 z" />
    <circle
       r="1.4646577"
       cy="66.193077"
       cx="133.47284"
       id="positiveterminal"
       style="opacity:0.853035;fill:#000000;fill-opacity:1;stroke:#000000;stroke-width:0.3;stroke-miterlimit:4;stroke-dasharray:none" />
    <ellipse
       ry="1.4174107"
       rx="1.4646577"
       cy="66.145836"
       cx="139.52046"
       id="negativeterminal"
       style="opacity:0.853035;fill:#000000;fill-opacity:1;stroke:#000000;stroke-width:0.3;stroke-miterlimit:4;stroke-dasharray:none" />
    <text
       id="plusminus"
       y="62.933033"
       x="129.55135"
       style="font-style:normal;font-weight:normal;font-size:7.05556px;line-height:1.25;font-family:sans-serif;fill:#000000;fill-opacity:1;stroke:none;stroke-width:0.264583"
       xml:space="preserve"><tspan
         style="font-size:7.05556px;stroke-width:0.264583"
         y="62.933033"
         x="129.55135"
         id="tspan887"
         sodipodi:role="line">+ -</tspan></text>
    <rect
       style="opacity:0.654952;fill:#80e5ff;stroke:#000000;stroke-width:0.4;stroke-miterlimit:4;stroke-dasharray:none;stroke-opacity:1"
       id="glassrod"
       width="3.519671"
       height="52.449326"
       x="124.65865"
       y="80.415878"
       ry="0.78673983" />
    <path
       id="ironnail"
       style="opacity:0.674121;mix-blend-mode:normal;fill:#b3b3b3;fill-opacity:1;stroke:#000000;stroke-width:0.4;stroke-miterlimit:4;stroke-dasharray:none;stroke-opacity:1"
       d="m 160.03719,102.18465 a 5.439344,0.560334 0 0 0 -5.38192,0.56021 5.439344,0.560334 0 0 0 3.49266,0.52321 v 23.71834 c 0,0.007 0.008,0.0123 0.0171,0.0154 h -0.0109 l 1.85878,2.17045 1.85916,-2.17999 h -0.0134 c 0.001,-0.002 0.004,-0.004 0.004,-0.006 v -23.7114 a 5.439344,0.560334 0 0 0 3.67114,-0.53001 5.439344,0.560334 0 0 0 -5.43924,-0.56021 5.439344,0.560334 0 0 0 -0.0573,0 z" />
    <path
       inkscape:transform-center-y="-17.349476"
       inkscape:transform-center-x="0.48365869"
       id="sandpaper"
       style="opacity:0.674121;mix-blend-mode:normal;fill:#aa8800;fill-opacity:1;stroke:#000000;stroke-width:0.118633;stroke-miterlimit:4;stroke-dasharray:none;stroke-opacity:1"
       d="m 37.838377,182.90305 21.256928,-18.00994 c 0.0038,-0.004 0.01001,-0.004 0.01383,-0.002 l 23.955197,13.27304 c 0.0038,0.002 0.0039,0.006 6e-6,0.01 l -21.256911,18.00993 c -0.0038,0.004 -0.01001,0.004 -0.01384,0.002 L 37.838408,182.9128 c -0.0039,-0.002 -0.0039,-0.006 -3.5e-5,-0.01 z" />
    <rect
       style="fill:#e3dbdb;stroke:#000000;stroke-width:0.104347;stroke-miterlimit:4;stroke-dasharray:none;stroke-opacity:1"
       id="weighingmachine"
       width="44.197693"
       height="14.258862"
       x="83.382401"
       y="243.13351"
       ry="0" />
    <rect
       style="fill:#536c53;stroke:#000000;stroke-width:0.104347;stroke-miterlimit:4;stroke-dasharray:none;stroke-opacity:1"
       id="Display-1"
       width="25.969267"
       height="5.2605519"
       x="93.245728"
       y="247.42502" />
    <rect
       style="fill:#000000;stroke-width:0.0920277"
       id="stand2"
       width="2.9964538"
       height="3.5993249"
       x="85.988701"
       y="257.4097" />
    <rect
       y="257.4097"
       x="122.19584"
       height="3.5993249"
       width="2.9964538"
       id="stand1-1"
       style="fill:#000000;stroke-width:0.0920277" />
    <rect
       style="opacity:0.43;fill:#aaeeff;stroke:#000000;stroke-width:0.139129;stroke-miterlimit:4;stroke-dasharray:none;stroke-opacity:1"
       id="shield-6"
       width="35.58289"
       height="37.792912"
       x="88.126785"
       y="205.47903"
       onclick="Heyy" />
    <path
       id="dish-6"
       style="opacity:1;fill:#c8b7b7;stroke:#000000;stroke-width:0.104347;stroke-miterlimit:4;stroke-dasharray:none;stroke-opacity:1"
       d="m 94.074853,240.95501 22.673707,0.0304 -1.68674,2.7187 H 95.972469 Z"
       sodipodi:nodetypes="ccccc" />
    <path
       inkscape:transform-center-x="-0.068333221"
       sodipodi:type="star"
       style="display:none;opacity:1;fill:#00ffff;stroke:#000000;stroke-width:0.656527;stroke-miterlimit:4;stroke-dasharray:none;stroke-opacity:1"
       id="heap2-6"
       sodipodi:sides="3"
       sodipodi:cx="90.337105"
       sodipodi:cy="145.12737"
       sodipodi:r1="18.244938"
       sodipodi:r2="9.1224689"
       sodipodi:arg1="-1.6588037"
       sodipodi:arg2="-0.61160615"
       inkscape:flatsided="true"
       inkscape:rounded="0"
       inkscape:randomized="0"
       d="m 88.733488,126.95304 18.144852,25.87272 -31.478856,2.77754 z"
       inkscape:transform-center-y="-0.35847995"
       transform="matrix(0.31000393,0.00558542,-0.01983386,0.08112902,76.602548,228.10265)" />
    <path
       inkscape:transform-center-x="-0.068326698"
       transform="matrix(0.31000393,0.00558542,-0.01983386,0.08112902,83.753534,228.00477)"
       inkscape:transform-center-y="-0.35847475"
       d="m 88.733488,126.95304 18.144852,25.87272 -31.478856,2.77754 z"
       inkscape:randomized="0"
       inkscape:rounded="0"
       inkscape:flatsided="true"
       sodipodi:arg2="-0.61160615"
       sodipodi:arg1="-1.6588037"
       sodipodi:r2="9.1224689"
       sodipodi:r1="18.244938"
       sodipodi:cy="145.12737"
       sodipodi:cx="90.337105"
       sodipodi:sides="3"
       id="heap1-5"
       style="display:none;opacity:1;fill:#00ffff;stroke:#000000;stroke-width:0.656527;stroke-miterlimit:4;stroke-dasharray:none;stroke-opacity:1"
       sodipodi:type="star" />
    <path
       sodipodi:nodetypes="ssccss"
       d="m 44.126716,253.10665 c -1.795628,-0.007 -3.722538,-2.13099 -3.690972,-3.23394 l 0.102292,-23.47951 7.049371,0.1224 -0.102296,23.29051 c -0.0048,1.10339 -1.562768,3.30826 -3.358395,3.30054 z"
       style="opacity:0.389776;fill:#00ffff;fill-opacity:1;stroke:#000000;stroke-width:0.112032;stroke-miterlimit:4;stroke-dasharray:none"
       id="TT5" />
    <path
       id="TT4"
       style="opacity:0.389776;fill:#00ffff;fill-opacity:1;stroke:#000000;stroke-width:0.112032;stroke-miterlimit:4;stroke-dasharray:none"
       d="m 169.20886,192.70373 c -1.79563,-0.007 -3.72254,-2.13099 -3.69098,-3.23394 l 0.1023,-23.4795 7.04937,0.12239 -0.1023,23.29051 c -0.005,1.10339 -1.56277,3.30826 -3.35839,3.30054 z"
       sodipodi:nodetypes="ssccss" />
    <path
       sodipodi:nodetypes="ssccss"
       d="m 149.43091,192.70373 c -1.79563,-0.007 -3.72254,-2.13099 -3.69097,-3.23394 l 0.10229,-23.4795 7.04937,0.12239 -0.10229,23.29051 c -0.005,1.10339 -1.56277,3.30826 -3.3584,3.30054 z"
       style="opacity:0.389776;fill:#00ffff;fill-opacity:1;stroke:#000000;stroke-width:0.112032;stroke-miterlimit:4;stroke-dasharray:none"
       id="TT3" />
    <path
       id="TT1"
       style="opacity:0.389776;fill:#00ffff;fill-opacity:1;stroke:#000000;stroke-width:0.112032;stroke-miterlimit:4;stroke-dasharray:none"
       d="m 109.34048,193.77281 c -1.79563,-0.007 -3.72254,-2.13099 -3.69097,-3.23394 l 0.10229,-23.47951 7.04937,0.12239 -0.1023,23.29052 c -0.005,1.10339 -1.56276,3.30826 -3.35839,3.30054 z"
       sodipodi:nodetypes="ssccss" />
    <path
       sodipodi:nodetypes="ssccss"
       d="m 129.21879,193.8952 c -1.79563,-0.007 -3.72254,-2.13099 -3.69097,-3.23394 l 0.10229,-23.47951 7.04937,0.1224 -0.10229,23.29051 c -0.005,1.10339 -1.56277,3.30826 -3.3584,3.30054 z"
       style="opacity:0.389776;fill:#00ffff;fill-opacity:1;stroke:#000000;stroke-width:0.112032;stroke-miterlimit:4;stroke-dasharray:none"
       id="TT2" />
    <path
       id="TT6"
       style="opacity:0.389776;fill:#00ffff;fill-opacity:1;stroke:#000000;stroke-width:0.112032;stroke-miterlimit:4;stroke-dasharray:none"
       d="m 65.508278,254.71027 c -1.795628,-0.007 -3.722538,-2.13099 -3.690972,-3.23394 l 0.102292,-23.47951 7.049371,0.1224 -0.102296,23.29051 c -0.0048,1.10339 -1.562768,3.30826 -3.358395,3.30054 z"
       sodipodi:nodetypes="ssccss" />
    <path
       d="m 134.43204,234.33552 15.81454,0.0969 c 0.7085,0.005 1.2868,1.87349 1.29665,4.1909 l 0.0723,17.02636 c 0.01,2.31742 -0.55261,4.17955 -1.26111,4.17521 l -15.81454,-0.0969 c -0.70851,-0.005 -1.28681,-1.87347 -1.29665,-4.19089 l -0.0723,-17.02635 c -0.01,-2.31742 0.55262,-4.17957 1.26112,-4.17523 z"
       style="fill:#e3dbdb;stroke-width:0.0386376"
       id="box-8-8" />
    <rect
       style="fill:#483737;stroke-width:0.0728061"
       id="lid-2-3"
       width="18.511948"
       height="8.6761274"
       x="133.15317"
       y="225.65161"
       ry="0.078251831" />
    <path
       d="m 137.31911,244.27165 h 10.33854 v 7.08255 h -10.33854 z"
       style="fill:#ffffff;stroke-width:0.0685291"
       id="Sticker-2-1" />
    <path
       id="box-8-8-2"
       style="fill:#e3dbdb;stroke-width:0.0386376"
       d="m 163.24611,234.82495 15.81454,0.0969 c 0.7085,0.005 1.2868,1.87349 1.29665,4.1909 l 0.0723,17.02636 c 0.01,2.31742 -0.55261,4.17955 -1.26111,4.17521 l -15.81454,-0.0969 c -0.70851,-0.005 -1.28681,-1.87347 -1.29665,-4.19089 l -0.0723,-17.02635 c -0.01,-2.31742 0.55262,-4.17957 1.26112,-4.17523 z" />
    <rect
       ry="0.078251839"
       y="226.14104"
       x="161.96724"
       height="8.6761274"
       width="18.511948"
       id="lid-2-3-6"
       style="fill:#483737;stroke-width:0.0728062" />
    <path
       id="Sticker-2-1-2"
       style="fill:#ffffff;stroke-width:0.0685292"
       d="m 166.13318,244.76108 h 10.33854 v 7.08255 h -10.33854 z" />
    <text
       id="HCL"
       y="249.65327"
       x="137.20537"
       style="font-style:normal;font-weight:normal;font-size:5.29167px;line-height:1.25;font-family:sans-serif;fill:#000000;fill-opacity:1;stroke:none;stroke-width:0.264583"
       xml:space="preserve"><tspan
         style="font-size:5.29167px;stroke-width:0.264583"
         y="249.65327"
         x="137.20537"
         id="tspan1038"
         sodipodi:role="line">HCL</tspan></text>
    <text
       transform="scale(0.87181715,1.1470295)"
       id="H2SO4"
       y="217.98152"
       x="191.07353"
       style="font-style:normal;font-weight:normal;font-size:3.07558px;line-height:1.25;font-family:sans-serif;fill:#000000;fill-opacity:1;stroke:none;stroke-width:0.230668"
       xml:space="preserve"><tspan
         style="font-size:3.07558px;stroke-width:0.230668"
         y="217.98152"
         x="191.07353"
         id="tspan1042"
         sodipodi:role="line">H2SO4</tspan></text>
    <path
       inkscape:transform-center-y="-1.1334403"
       inkscape:transform-center-x="-13.985005"
       sodipodi:nodetypes="ssccss"
       d="m 181.5438,130.52982 c -1.79563,-0.007 -3.72254,-2.13099 -3.69098,-3.23394 l 0.1023,-23.4795 7.04937,0.12239 -0.1023,23.29051 c -0.005,1.10339 -1.56277,3.30826 -3.35839,3.30054 z"
       style="opacity:0.389776;fill:#00ffff;fill-opacity:1;stroke:#000000;stroke-width:0.112032;stroke-miterlimit:4;stroke-dasharray:none"
       id="TT4-8" />
  </g>
</svg>
